<svg width="133" height="133" viewBox="0 0 133 133" fill="none" xmlns="http://www.w3.org/2000/svg">
<path d="M72.4601 70.4183C71.1356 70.4183 69.9309 70.1881 68.8454 69.7284C67.7786 69.25 66.8587 68.5971 66.086 67.7693C65.3316 66.9415 64.7434 65.994 64.3201 64.9272C63.9156 63.8417 63.713 62.6921 63.713 61.478C63.713 59.988 63.9983 58.6817 64.5684 57.5598C65.1573 56.4378 65.9299 55.5085 66.8862 54.7728C67.8426 54.0186 68.8912 53.4576 70.0319 53.0896C71.1726 52.7217 72.3039 52.5378 73.4259 52.5378C74.7873 52.5378 76.0014 52.7861 77.0682 53.2828C78.1537 53.7611 79.0731 54.4141 79.8275 55.2419C80.5819 56.0697 81.152 57.0079 81.5383 58.0565C81.9428 59.105 82.1454 60.1811 82.1454 61.2849C82.1454 62.5724 81.8877 63.7683 81.3728 64.872C80.8579 65.9758 80.1493 66.9415 79.2481 67.7693C78.3651 68.5971 77.3348 69.25 76.1576 69.7284C74.9987 70.1881 73.7664 70.4183 72.4601 70.4183ZM73.3983 69.756C74.502 69.756 75.486 69.4619 76.3508 68.8731C77.2338 68.2842 77.9236 67.42 78.4203 66.2793C78.9352 65.1204 79.1929 63.7225 79.1929 62.0851C79.1929 60.3743 78.917 58.8567 78.3651 57.5322C77.8132 56.2077 77.0224 55.1684 75.9921 54.4141C74.9617 53.6415 73.7294 53.2552 72.2945 53.2552C70.5104 53.2552 69.1213 53.8991 68.128 55.1867C67.1528 56.456 66.6655 58.222 66.6655 60.4847C66.6655 61.8092 66.8311 63.0415 67.1622 64.1822C67.4933 65.3041 67.953 66.2887 68.5419 67.1347C69.1489 67.9807 69.857 68.6341 70.6665 69.0938C71.4943 69.5353 72.4049 69.756 73.3983 69.756ZM101.217 52.8413C101.273 52.8413 101.3 52.8965 101.3 53.0069C101.3 53.1172 101.273 53.1724 101.217 53.1724C100.574 53.1724 99.9757 53.4208 99.4238 53.9174C98.8719 54.4141 98.4216 55.1316 98.0717 56.0697L92.691 70.0596C92.6728 70.133 92.5718 70.1699 92.3875 70.1699C92.2219 70.1699 92.1209 70.133 92.084 70.0596L85.1028 55.1316C84.7905 54.4693 84.4682 53.9819 84.1371 53.6691C83.8059 53.338 83.4014 53.1724 82.923 53.1724C82.8678 53.1724 82.8402 53.1172 82.8402 53.0069C82.8402 52.8965 82.8678 52.8413 82.923 52.8413C83.1625 52.8413 83.3556 52.8505 83.5024 52.8689C83.668 52.8873 83.8611 52.9057 84.0819 52.9241C84.3214 52.9241 84.6338 52.9241 85.0201 52.9241C85.903 52.9241 86.6205 52.9241 87.1723 52.9241C87.743 52.9057 88.2121 52.8873 88.5796 52.8689C88.9659 52.8505 89.3064 52.8413 89.6005 52.8413C89.6557 52.8413 89.6833 52.8965 89.6833 53.0069C89.6833 53.1172 89.6557 53.1724 89.6005 53.1724C88.8279 53.1724 88.3037 53.3656 88.0277 53.7519C87.7706 54.1382 87.8164 54.6901 88.1657 55.4075L93.4912 66.9415L92.3599 68.8455L97.3267 55.9594C97.6396 55.1316 97.6578 54.4601 97.3819 53.945C97.1059 53.43 96.4989 53.1724 95.5607 53.1724C95.5055 53.1724 95.4779 53.1172 95.4779 53.0069C95.4779 52.8965 95.5055 52.8413 95.5607 52.8413C96.0574 52.8413 96.5359 52.8597 96.9956 52.8965C97.4558 52.9149 98.0535 52.9241 98.7891 52.9241C99.3046 52.9241 99.7185 52.9149 100.031 52.8965C100.362 52.8597 100.758 52.8413 101.217 52.8413Z" fill="white"/>
<path d="M54.1437 82.2531C53.796 82.2531 53.5477 82.162 53.3987 81.9799C53.2497 81.7812 53.1752 81.5329 53.1752 81.2349C53.1752 80.7879 53.3324 80.2829 53.647 79.72C53.9616 79.1406 54.3672 78.5363 54.8639 77.9071C55.3771 77.278 55.9069 76.6572 56.4533 76.0446C57.0162 75.432 57.546 74.8691 58.0426 74.3559C57.7943 74.3559 57.5211 74.4221 57.2231 74.5545C56.9417 74.687 56.6519 74.8443 56.3539 75.0264C55.9069 75.3244 55.4185 75.7217 54.8887 76.2184C54.3589 76.7151 53.8291 77.2449 53.2993 77.8078C52.7695 78.3707 52.2646 78.9253 51.7845 79.4717C51.4037 79.9187 51.0974 80.2912 50.8656 80.5892C50.6504 80.8872 50.46 81.1604 50.2944 81.4087C50.1454 81.6405 49.9799 81.9054 49.7977 82.2034C49.5328 82.2034 49.4004 82.0461 49.4004 81.7316C49.4004 81.4005 49.508 81.0031 49.7232 80.5395C49.9219 80.076 50.0957 79.7117 50.2447 79.4468C50.6752 78.7184 51.1636 77.9568 51.71 77.1621C52.2729 76.3509 52.7944 75.639 53.2745 75.0264C53.5228 74.6953 53.7877 74.4552 54.0692 74.3062C54.3506 74.1406 54.5907 74.0413 54.7894 74.0082C54.988 73.9585 55.0874 73.9337 55.0874 73.9337C54.988 74.0827 54.7811 74.3973 54.4665 74.8774C54.152 75.3575 53.7877 75.9204 53.3738 76.5661C52.9599 77.2118 52.5378 77.8657 52.1073 78.528C52.7861 77.7498 53.5146 76.9965 54.2927 76.2681C55.0708 75.5231 55.8158 74.9188 56.5278 74.4552C56.743 74.3062 56.9665 74.182 57.1983 74.0827C57.4301 73.9834 57.6701 73.9337 57.9185 73.9337C58.3655 73.9337 58.589 74.1075 58.589 74.4552C58.589 74.7201 58.4317 75.0347 58.1171 75.3989C57.7363 75.8459 57.3224 76.3426 56.8754 76.8889C56.4284 77.4353 55.998 77.9899 55.5841 78.5528C55.1867 79.1157 54.8556 79.6372 54.5907 80.1174C54.3424 80.5975 54.2182 80.9865 54.2182 81.2846C54.2182 81.4501 54.2596 81.5743 54.3424 81.6571C54.4417 81.7233 54.5245 81.7564 54.5907 81.7564C54.839 81.7564 55.1122 81.6571 55.4102 81.4584C55.7248 81.2597 56.0228 81.0279 56.3043 80.763C56.6023 80.4816 56.8589 80.2167 57.0741 79.9684C57.3059 79.72 57.4549 79.5545 57.5211 79.4717C57.5873 79.4717 57.6205 79.5213 57.6205 79.6207C57.6205 79.7697 57.5873 79.8856 57.5211 79.9684C57.2893 80.2167 56.983 80.523 56.6023 80.8872C56.2215 81.2515 55.8158 81.5743 55.3854 81.8557C54.9549 82.1206 54.541 82.2531 54.1437 82.2531ZM58.4637 82.2531C57.8511 82.2531 57.5448 81.9054 57.5448 81.2101C57.5448 80.8127 57.6607 80.3409 57.8925 79.7945C58.1243 79.2316 58.472 78.6439 58.9356 78.0313C59.2667 77.6174 59.6723 77.1787 60.1524 76.7151C60.6325 76.235 61.1541 75.7797 61.717 75.3492C62.2964 74.9188 62.8842 74.5711 63.4802 74.3062C64.0762 74.0247 64.6557 73.884 65.2186 73.884C65.4669 73.884 65.6407 73.9254 65.7401 74.0082C65.8394 74.0744 65.9056 74.1489 65.9387 74.2317C65.9719 74.2979 65.9719 74.3476 65.9387 74.3807C65.9222 74.4138 65.8974 74.4221 65.8642 74.4055C65.798 74.3724 65.6656 74.3559 65.4669 74.3559C64.8709 74.3559 64.159 74.6456 63.3312 75.2251C62.5199 75.788 61.717 76.5247 60.9223 77.4353C60.3594 78.0644 59.8958 78.6853 59.5316 79.2978C59.1673 79.8939 58.9273 80.3905 58.8114 80.7879C58.7783 80.9203 58.7617 81.0362 58.7617 81.1356C58.7617 81.3673 58.8528 81.4832 59.0349 81.4832C59.1508 81.4832 59.3081 81.4336 59.5067 81.3342C59.7054 81.2183 59.962 81.0279 60.2766 80.763C60.7733 80.3326 61.2617 79.8276 61.7418 79.2482C62.2385 78.6687 62.7269 78.081 63.207 77.485C63.6871 76.8724 64.1507 76.3095 64.5977 75.7962C65.0613 75.283 65.5 74.8939 65.9139 74.629C66.4437 74.2814 66.8079 74.0827 67.0066 74.033C67.2218 73.9834 67.3957 73.9502 67.5281 73.9337C67.4453 74.033 67.2632 74.2648 66.9818 74.629C66.7003 74.9933 66.4023 75.3823 66.0878 75.7962C65.7732 76.1936 65.5166 76.5247 65.3179 76.7896C65.0199 77.2201 64.697 77.6836 64.3494 78.1803C64.0182 78.677 63.712 79.1488 63.4305 79.5958C63.1656 80.0263 62.9835 80.3823 62.8842 80.6637C62.8014 80.9452 62.76 81.1521 62.76 81.2846C62.76 81.5495 62.8676 81.6819 63.0828 81.6819C63.2318 81.6819 63.4057 81.624 63.6043 81.5081C63.8196 81.3756 64.0348 81.2266 64.25 81.061C64.5315 80.8293 64.7964 80.5892 65.0447 80.3409C65.2931 80.076 65.5497 79.7862 65.8146 79.4717C65.8808 79.4717 65.9139 79.5213 65.9139 79.6207C65.9139 79.7697 65.8808 79.8856 65.8146 79.9684C65.5994 80.2167 65.3345 80.4899 65.0199 80.7879C64.7219 81.0859 64.4239 81.3508 64.1259 81.5826C63.9106 81.7647 63.6623 81.922 63.3808 82.0544C63.0994 82.1869 62.8262 82.2531 62.5613 82.2531C62.1805 82.2531 61.9156 82.162 61.7666 81.9799C61.6176 81.7978 61.5431 81.566 61.5431 81.2846C61.5431 80.9534 61.6176 80.5975 61.7666 80.2167C61.9156 79.8193 62.0812 79.4468 62.2633 79.0992C62.0481 79.3641 61.7749 79.6869 61.4438 80.0677C61.1127 80.4319 60.8147 80.7382 60.5498 80.9866C60.1855 81.3177 59.8379 81.6157 59.5067 81.8806C59.1756 82.1289 58.8279 82.2531 58.4637 82.2531ZM72.4088 72.8907C72.0777 72.8907 71.9122 72.7582 71.9122 72.4933C71.9122 72.4105 71.937 72.3195 71.9867 72.2201C72.0694 72.0215 72.2102 71.8476 72.4088 71.6986C72.6241 71.5331 72.831 71.4503 73.0297 71.4503C73.3443 71.4503 73.5015 71.5827 73.5015 71.8476C73.5015 72.096 73.3856 72.3278 73.1539 72.543C72.9221 72.7582 72.6737 72.8741 72.4088 72.8907ZM67.0199 82.2779C66.5728 82.2779 66.2583 82.162 66.0762 81.9302C65.8775 81.6819 65.7782 81.3756 65.7782 81.0114C65.7782 80.5313 65.9272 80.018 66.2252 79.4717C66.5066 78.9088 66.8626 78.3541 67.293 77.8078C67.7235 77.2449 68.1622 76.7234 68.6092 76.2433C69.0562 75.7466 69.4453 75.3409 69.7764 75.0264C70.091 74.7118 70.4138 74.48 70.745 74.331C71.0761 74.182 71.3575 74.0827 71.5893 74.033C71.8377 73.9668 71.9618 73.9337 71.9618 73.9337C71.5976 74.3476 71.1009 74.9353 70.4718 75.6969C69.8427 76.4585 69.2218 77.2697 68.6092 78.1306C68.5596 78.1969 68.4437 78.3624 68.2616 78.6273C68.0794 78.8922 67.8725 79.1985 67.6407 79.5462C67.4255 79.8939 67.2351 80.2333 67.0695 80.5644C66.9205 80.8955 66.846 81.1604 66.846 81.3591C66.846 81.6736 67.0116 81.8309 67.3427 81.8309C67.591 81.8309 67.8559 81.7399 68.1374 81.5577C68.4354 81.3756 68.7334 81.1521 69.0314 80.8872C69.3294 80.6223 69.5943 80.3657 69.8261 80.1174C70.0744 79.8525 70.2648 79.6372 70.3973 79.4717C70.4635 79.4717 70.4966 79.5213 70.4966 79.6207C70.4966 79.7697 70.4635 79.8856 70.3973 79.9684C69.7682 80.6968 69.197 81.268 68.6837 81.6819C68.1871 82.0792 67.6324 82.2779 67.0199 82.2779ZM71.5888 82.3028C70.761 82.3028 70.3471 81.922 70.3471 81.1604C70.3471 80.9121 70.405 80.6223 70.5209 80.2912C70.6368 79.9601 70.852 79.5213 71.1666 78.975C71.597 78.23 72.2013 77.3525 72.9795 76.3426C73.7742 75.3327 74.6185 74.3476 75.5125 73.3873C76.2907 72.5099 77.135 71.7069 78.0456 70.9784C78.9728 70.2334 79.933 69.7202 80.9264 69.4387C81.0754 69.3891 81.2492 69.3477 81.4479 69.3146C81.6465 69.2814 81.8535 69.2649 82.0687 69.2649C82.4661 69.2649 82.8055 69.3228 83.0869 69.4387C83.2194 69.505 83.3518 69.596 83.4843 69.7119C83.6167 69.8112 83.7078 69.9602 83.7574 70.1589C83.5753 70.0099 83.3684 69.9023 83.1366 69.8361C82.9048 69.7533 82.6233 69.7119 82.2922 69.7119C81.4313 69.7119 80.6035 69.9934 79.8088 70.5563C79.0141 71.1192 78.2195 71.8476 77.4248 72.7417C76.6466 73.6191 75.8271 74.5545 74.9662 75.5479C74.6351 75.9287 74.2708 76.4005 73.8735 76.9634C73.4761 77.5263 73.0954 78.0893 72.7311 78.6522C72.3835 79.2151 72.102 79.6952 71.8868 80.0925C71.7709 80.2746 71.6798 80.4733 71.6136 80.6885C71.5639 80.8872 71.5391 81.0528 71.5391 81.1852C71.5391 81.5826 71.6881 81.7812 71.9861 81.7812C72.3007 81.7812 72.6483 81.6322 73.0291 81.3342C73.4265 81.0362 73.799 80.7051 74.1467 80.3409C74.5109 79.9766 74.7841 79.6869 74.9662 79.4717C75.0324 79.4717 75.0655 79.5213 75.0655 79.6207C75.0655 79.7697 75.0324 79.8856 74.9662 79.9684C74.304 80.7299 73.6914 81.3094 73.1285 81.7067C72.5821 82.1041 72.0689 82.3028 71.5888 82.3028ZM77.5258 82.4021C77.1946 82.4021 76.8718 82.369 76.5572 82.3028C76.2592 82.2365 75.9943 82.1206 75.7625 81.9551C75.5804 81.8226 75.4314 81.6405 75.3155 81.4087C75.1831 81.1769 75.1169 80.8789 75.1169 80.5147C75.1169 80.0843 75.2245 79.7531 75.4397 79.5213C75.6384 79.2896 75.8536 79.1737 76.0854 79.1737C76.2675 78.9419 76.5158 78.619 76.8304 78.2051C77.145 77.7747 77.4926 77.3028 77.8734 76.7896C78.2708 76.2764 78.6764 75.7631 79.0903 75.2499C79.5042 74.7201 79.8933 74.2482 80.2575 73.8343C80.4893 73.6026 80.7293 73.3542 80.9777 73.0893C81.2426 72.8244 81.5323 72.6009 81.8469 72.4188C82.178 72.2201 82.5257 72.1208 82.8899 72.1208C83.1714 72.1208 83.37 72.187 83.4859 72.3195C83.6184 72.4519 83.6846 72.6092 83.6846 72.7913C83.6846 72.8907 83.6598 72.9817 83.6101 73.0645C83.428 73.0314 83.1713 73.0645 82.8402 73.1638C82.5091 73.2466 82.1449 73.4039 81.7475 73.6357C81.3171 73.9006 80.8783 74.2317 80.4313 74.629C80.4148 74.8277 80.3899 75.134 80.3568 75.5479C80.3403 75.9452 80.3154 76.4005 80.2823 76.9138C80.2492 77.4104 80.1913 77.9154 80.1085 78.4286C80.0423 78.9253 79.9512 79.3641 79.8353 79.7448C79.7525 80.0097 79.6201 80.3078 79.438 80.6389C79.2559 80.9534 79.0075 81.2514 78.6929 81.5329C78.3949 81.7978 78.0224 81.9799 77.5754 82.0792C78.1714 82.0792 78.6681 81.9882 79.0655 81.8061C79.4628 81.624 79.7939 81.417 80.0588 81.1852C80.3403 80.9369 80.5638 80.7382 80.7293 80.5892C80.8618 80.4568 81.0439 80.2664 81.2757 80.018C81.5075 79.7697 81.673 79.5876 81.7724 79.4717C81.8386 79.4717 81.8717 79.5213 81.8717 79.6207C81.8717 79.7697 81.8386 79.8856 81.7724 79.9684C81.077 80.7134 80.4976 81.2597 80.034 81.6074C79.6201 81.922 79.1979 82.1289 78.7675 82.2283C78.337 82.3441 77.9231 82.4021 77.5258 82.4021ZM76.6566 81.9302C76.938 81.9302 77.1946 81.8226 77.4264 81.6074C77.6748 81.3756 77.8983 81.1107 78.0969 80.8127C78.2956 80.4981 78.4529 80.2084 78.5688 79.9435C78.7509 79.5462 78.9413 79.0412 79.14 78.4286C79.3386 77.8161 79.529 77.1952 79.7111 76.5661C79.8933 75.9204 80.0423 75.3658 80.1582 74.9022C79.6946 75.3492 79.231 75.8376 78.7675 76.3674C78.3204 76.8972 77.9065 77.4022 77.5258 77.8823C77.145 78.3624 76.8304 78.7598 76.5821 79.0743C76.3668 79.3558 76.2013 79.6538 76.0854 79.9684C75.9695 80.2829 75.9115 80.5809 75.9115 80.8624C75.9115 81.1769 75.9778 81.4336 76.1102 81.6322C76.2427 81.8309 76.4248 81.9302 76.6566 81.9302ZM90.4902 82.3276C90.1922 82.3276 89.977 82.2531 89.8445 82.1041C89.7121 81.9551 89.6459 81.7647 89.6459 81.5329C89.6459 81.3342 89.6955 81.0528 89.7949 80.6885C90.0101 80.0925 90.3247 79.4882 90.7386 78.8757C91.1525 78.2465 91.5995 77.6505 92.0796 77.0876C92.5763 76.5081 93.0481 75.9866 93.4951 75.5231C93.9421 75.0429 94.2981 74.6539 94.563 74.3559C94.3147 74.3559 94.0415 74.4221 93.7435 74.5545C93.462 74.687 93.1723 74.8443 92.8743 75.0264C92.1624 75.5231 91.4422 76.1108 90.7137 76.7896C90.0018 77.4684 89.3313 78.1638 88.7022 78.8757C88.0896 79.5876 87.5681 80.2415 87.1376 80.8375C86.7072 81.4336 86.434 81.8971 86.3181 82.2283C86.0532 82.2283 85.9208 82.0627 85.9208 81.7316C85.9208 81.4501 86.0035 81.1024 86.1691 80.6885C86.3347 80.2581 86.5416 79.8276 86.7899 79.3972C87.3529 78.4535 88.0399 77.4353 88.8512 76.3426C89.679 75.2333 90.5316 74.1986 91.4091 73.2383C92.1872 72.3774 93.0316 71.5993 93.9421 70.9039C94.8527 70.2086 95.8047 69.7202 96.7981 69.4387C96.9471 69.3891 97.1209 69.3477 97.3196 69.3146C97.5182 69.2814 97.7252 69.2649 97.9404 69.2649C98.3378 69.2649 98.6772 69.3228 98.9586 69.4387C99.0911 69.505 99.2235 69.596 99.356 69.7119C99.4884 69.8112 99.5795 69.9602 99.6291 70.1589C99.447 70.0099 99.2401 69.9023 99.0083 69.8361C98.7765 69.7533 98.4951 69.7119 98.1639 69.7119C97.5182 69.7119 96.856 69.9023 96.1772 70.2831C95.515 70.6473 94.8776 71.0943 94.265 71.6241C93.669 72.1539 93.1392 72.6837 92.6756 73.2135C92.2286 73.7267 91.8809 74.1324 91.6326 74.4304C90.9869 75.2251 90.4157 75.9701 89.919 76.6654C89.4389 77.3442 89.0333 77.9237 88.7022 78.4038C89.3644 77.6754 90.0846 76.9469 90.8627 76.2184C91.6574 75.4734 92.3859 74.8857 93.0481 74.4552C93.2634 74.3062 93.4869 74.182 93.7186 74.0827C93.9504 73.9834 94.1905 73.9337 94.4388 73.9337C94.8858 73.9337 95.1093 74.1075 95.1093 74.4552C95.1093 74.7201 94.9521 75.0347 94.6375 75.3989C94.058 76.0611 93.4703 76.7979 92.8743 77.6091C92.2783 78.4038 91.7733 79.1985 91.3594 79.9932C91.2932 80.1091 91.1773 80.3409 91.0117 80.6885C90.8627 81.0197 90.7882 81.3011 90.7882 81.5329C90.7882 81.7316 90.8793 81.8309 91.0614 81.8309C91.4422 81.8309 91.9058 81.5908 92.4521 81.1107C92.9985 80.614 93.5282 80.0677 94.0415 79.4717C94.1077 79.4717 94.1408 79.5213 94.1408 79.6207C94.1408 79.7697 94.1077 79.8856 94.0415 79.9684C93.8097 80.2167 93.5117 80.5313 93.1475 80.9121C92.7998 81.2763 92.4024 81.6074 91.9554 81.9054C91.5084 82.1869 91.02 82.3276 90.4902 82.3276ZM95.5056 82.3524C95.0255 82.3524 94.6861 82.2365 94.4874 82.0047C94.2722 81.7564 94.1645 81.4501 94.1645 81.0859C94.1645 80.6223 94.297 80.076 94.5619 79.4468C94.8433 78.8177 95.2159 78.1803 95.6794 77.5346C96.143 76.8889 96.6645 76.2929 97.244 75.7466C97.8234 75.1837 98.4112 74.7367 99.0072 74.4055C99.6198 74.0579 100.207 73.884 100.77 73.884C101.184 73.884 101.482 73.9916 101.664 74.2069C101.847 74.4221 101.938 74.7035 101.938 75.0512C101.938 75.5148 101.805 76.0694 101.54 76.7151C101.275 77.3442 100.911 77.9899 100.448 78.6522C100.001 79.2978 99.4956 79.9021 98.9327 80.465C98.3863 81.0279 97.8151 81.4832 97.2191 81.8309C96.6231 82.1786 96.0519 82.3524 95.5056 82.3524ZM95.8036 81.8806C96.1513 81.8806 96.5652 81.7067 97.0453 81.3591C97.542 80.9948 98.0469 80.5313 98.5602 79.9684C99.0734 79.4055 99.5453 78.8094 99.9757 78.1803C100.423 77.5346 100.779 76.9303 101.044 76.3674C101.325 75.788 101.466 75.3161 101.466 74.9519C101.466 74.5545 101.275 74.3559 100.895 74.3559C100.58 74.3559 100.183 74.5463 99.7025 74.9271C99.239 75.2913 98.7506 75.7631 98.2373 76.3426C97.7407 76.9221 97.2688 77.5346 96.8218 78.1803C96.3748 78.826 96.0105 79.4386 95.7291 80.018C95.4642 80.5975 95.3318 81.0528 95.3318 81.3839C95.3318 81.715 95.489 81.8806 95.8036 81.8806ZM101.982 82.2283C101.585 82.2283 101.304 82.1372 101.138 81.9551C100.972 81.773 100.89 81.5412 100.89 81.2597C100.89 80.9783 100.956 80.672 101.088 80.3409C101.204 79.9932 101.353 79.6538 101.535 79.3227C101.85 78.7929 102.206 78.2631 102.603 77.7333C103.017 77.1869 103.431 76.682 103.845 76.2184C104.275 75.7548 104.656 75.3575 104.987 75.0264C105.302 74.7118 105.625 74.48 105.956 74.331C106.287 74.182 106.568 74.0827 106.8 74.033C107.048 73.9668 107.173 73.9337 107.173 73.9337C106.808 74.3476 106.312 74.9353 105.683 75.6969C105.07 76.4585 104.449 77.2697 103.82 78.1306C103.754 78.2134 103.63 78.3873 103.448 78.6522C103.282 78.9171 103.1 79.2151 102.901 79.5462C102.702 79.8607 102.529 80.1753 102.38 80.4899C102.247 80.7879 102.181 81.0279 102.181 81.2101C102.181 81.3922 102.28 81.475 102.479 81.4584C102.694 81.4418 102.976 81.2846 103.323 80.9866C103.671 80.6885 104.044 80.3243 104.441 79.8939C104.838 79.4634 105.211 79.0412 105.558 78.6273C105.923 78.1969 106.221 77.8409 106.452 77.5595C106.635 77.3442 106.858 77.0793 107.123 76.7648C107.388 76.4336 107.661 76.0943 107.942 75.7466C108.224 75.3989 108.481 75.0926 108.712 74.8277C108.977 74.5297 109.259 74.3228 109.557 74.2069C109.855 74.0744 110.111 73.9999 110.327 73.9834C110.558 73.9502 110.674 73.9337 110.674 73.9337C110.542 74.0992 110.277 74.4221 109.88 74.9022C109.499 75.3823 109.068 75.9535 108.588 76.6158C108.108 77.2614 107.653 77.9402 107.222 78.6522C106.792 79.3475 106.461 80.0097 106.229 80.6389C106.113 80.9203 106.055 81.1521 106.055 81.3342C106.055 81.4998 106.096 81.6157 106.179 81.6819C106.262 81.7316 106.353 81.7564 106.452 81.7564C106.684 81.7564 106.941 81.6571 107.222 81.4584C107.52 81.2597 107.802 81.0279 108.067 80.763C108.348 80.4816 108.596 80.2167 108.812 79.9684C109.027 79.72 109.168 79.5545 109.234 79.4717C109.3 79.4717 109.333 79.5213 109.333 79.6207C109.333 79.7697 109.3 79.8856 109.234 79.9684C108.985 80.2664 108.679 80.5892 108.315 80.9369C107.967 81.2846 107.595 81.5908 107.197 81.8557C106.817 82.1041 106.436 82.2283 106.055 82.2283C105.641 82.2283 105.351 82.1289 105.186 81.9302C105.02 81.7316 104.938 81.4832 104.938 81.1852C104.938 80.9038 104.995 80.5975 105.111 80.2664C105.227 79.9187 105.368 79.5958 105.534 79.2978C105.335 79.4965 105.095 79.7614 104.813 80.0925C104.548 80.4071 104.25 80.7299 103.919 81.061C103.588 81.3922 103.257 81.6736 102.926 81.9054C102.595 82.1206 102.28 82.2283 101.982 82.2283ZM111.803 82.4021C111.472 82.4021 111.149 82.369 110.835 82.3028C110.537 82.2365 110.272 82.1206 110.04 81.9551C109.858 81.8226 109.709 81.6405 109.593 81.4087C109.461 81.1769 109.394 80.8789 109.394 80.5147C109.394 80.0843 109.502 79.7531 109.717 79.5213C109.916 79.2896 110.131 79.1737 110.363 79.1737C110.545 78.9419 110.793 78.619 111.108 78.2051C111.423 77.7747 111.77 77.3028 112.151 76.7896C112.548 76.2764 112.954 75.7631 113.368 75.2499C113.782 74.7201 114.171 74.2482 114.535 73.8343C114.767 73.6026 115.007 73.3542 115.255 73.0893C115.52 72.8244 115.81 72.6009 116.124 72.4188C116.456 72.2201 116.803 72.1208 117.167 72.1208C117.449 72.1208 117.648 72.187 117.763 72.3195C117.896 72.4519 117.962 72.6092 117.962 72.7913C117.962 72.8907 117.937 72.9817 117.888 73.0645C117.706 73.0314 117.449 73.0645 117.118 73.1638C116.787 73.2466 116.422 73.4039 116.025 73.6357C115.595 73.9006 115.156 74.2317 114.709 74.629C114.692 74.8277 114.668 75.134 114.634 75.5479C114.618 75.9452 114.593 76.4005 114.56 76.9138C114.527 77.4104 114.469 77.9154 114.386 78.4286C114.32 78.9253 114.229 79.3641 114.113 79.7448C114.03 80.0097 113.898 80.3078 113.716 80.6389C113.533 80.9534 113.285 81.2514 112.971 81.5329C112.673 81.7978 112.3 81.9799 111.853 82.0792C112.449 82.0792 112.946 81.9882 113.343 81.8061C113.74 81.624 114.072 81.417 114.336 81.1852C114.618 80.9369 114.841 80.7382 115.007 80.5892C115.139 80.4568 115.321 80.2664 115.553 80.018C115.785 79.7697 115.951 79.5876 116.05 79.4717C116.116 79.4717 116.149 79.5213 116.149 79.6207C116.149 79.7697 116.116 79.8856 116.05 79.9684C115.355 80.7134 114.775 81.2597 114.312 81.6074C113.898 81.922 113.475 82.1289 113.045 82.2283C112.615 82.3441 112.201 82.4021 111.803 82.4021ZM110.934 81.9302C111.216 81.9302 111.472 81.8226 111.704 81.6074C111.952 81.3756 112.176 81.1107 112.375 80.8127C112.573 80.4981 112.73 80.2084 112.846 79.9435C113.028 79.5462 113.219 79.0412 113.418 78.4286C113.616 77.8161 113.807 77.1952 113.989 76.5661C114.171 75.9204 114.32 75.3658 114.436 74.9022C113.972 75.3492 113.509 75.8376 113.045 76.3674C112.598 76.8972 112.184 77.4022 111.803 77.8823C111.423 78.3624 111.108 78.7598 110.86 79.0743C110.644 79.3558 110.479 79.6538 110.363 79.9684C110.247 80.2829 110.189 80.5809 110.189 80.8624C110.189 81.1769 110.255 81.4336 110.388 81.6322C110.52 81.8309 110.702 81.9302 110.934 81.9302ZM118.432 82.4021C117.67 82.4021 117.132 82.2365 116.818 81.9054C116.503 81.5743 116.346 81.1273 116.346 80.5644C116.346 80.018 116.495 79.4468 116.793 78.8508C117.107 78.2383 117.496 77.6588 117.96 77.1124C118.241 76.7813 118.589 76.4336 119.003 76.0694C119.417 75.7052 119.864 75.3658 120.344 75.0512C120.824 74.7201 121.296 74.4552 121.76 74.2565C122.24 74.0413 122.662 73.9337 123.026 73.9337C123.225 73.9337 123.407 73.9834 123.572 74.0827C123.738 74.1655 123.821 74.3559 123.821 74.6539C123.821 75.0678 123.622 75.4651 123.225 75.8459C122.827 76.2101 122.38 76.5495 121.884 76.8641C121.321 77.2283 120.733 77.5346 120.121 77.783C119.508 78.0313 118.978 78.2217 118.531 78.3541C118.283 78.7515 118.084 79.1571 117.935 79.571C117.786 79.9849 117.712 80.3905 117.712 80.7879C117.712 81.2183 117.811 81.5163 118.01 81.6819C118.225 81.8309 118.473 81.9054 118.755 81.9054C119.268 81.9054 119.731 81.7895 120.145 81.5577C120.576 81.3094 120.973 80.9948 121.337 80.614C121.702 80.2333 122.049 79.8525 122.38 79.4717C122.447 79.4717 122.48 79.5213 122.48 79.6207C122.48 79.7697 122.447 79.8856 122.38 79.9684C122.049 80.3491 121.685 80.7299 121.288 81.1107C120.907 81.4915 120.485 81.8061 120.021 82.0544C119.558 82.2862 119.028 82.4021 118.432 82.4021ZM118.829 78.0065C119.26 77.8575 119.765 77.6505 120.344 77.3856C120.94 77.1207 121.462 76.831 121.909 76.5164C122.008 76.4502 122.182 76.3178 122.43 76.1191C122.678 75.9038 122.91 75.6721 123.125 75.4237C123.341 75.1588 123.448 74.9271 123.448 74.7284C123.448 74.4635 123.316 74.331 123.051 74.331C122.769 74.331 122.447 74.4552 122.082 74.7035C121.735 74.9519 121.453 75.1671 121.238 75.3492C120.841 75.7135 120.427 76.1191 119.996 76.5661C119.566 77.0131 119.177 77.4932 118.829 78.0065ZM124.127 82.3028C123.829 82.3028 123.68 82.1703 123.68 81.9054C123.68 81.6405 123.804 81.4005 124.053 81.1852C124.317 80.97 124.582 80.8624 124.847 80.8624C125.145 80.8624 125.294 81.0031 125.294 81.2846C125.294 81.5495 125.17 81.7895 124.922 82.0047C124.673 82.2034 124.409 82.3028 124.127 82.3028Z" fill="white"/>
<path d="M114.678 70.0872H101.047C100.992 70.0872 100.964 70.032 100.964 69.9216C100.964 69.8112 100.992 69.756 101.047 69.756C101.654 69.756 102.105 69.7102 102.399 69.6181C102.693 69.5259 102.886 69.3421 102.978 69.0662C103.089 68.7903 103.144 68.3857 103.144 67.8521V55.0764C103.144 54.5429 103.089 54.1474 102.978 53.8899C102.886 53.6139 102.693 53.43 102.399 53.338C102.105 53.2276 101.654 53.1724 101.047 53.1724C100.992 53.1724 100.964 53.1172 100.964 53.0069C100.964 52.8965 100.992 52.8413 101.047 52.8413H112.526C112.71 52.8413 112.802 52.9241 112.802 53.0896L112.857 56.6768C112.857 56.7138 112.811 56.7414 112.719 56.7596C112.627 56.7596 112.563 56.732 112.526 56.6768C112.323 55.6282 111.9 54.8464 111.256 54.3313C110.612 53.8163 109.766 53.5587 108.718 53.5587H107.587C107.127 53.5587 106.759 53.6139 106.483 53.7243C106.225 53.8163 106.041 53.9819 105.931 54.221C105.821 54.4417 105.765 54.7453 105.765 55.1316V67.7417C105.765 68.128 105.811 68.4498 105.903 68.7075C106.014 68.9464 106.179 69.1214 106.4 69.2318C106.621 69.3239 106.934 69.3697 107.338 69.3697H108.69C109.941 69.3697 112.609 69.0756 113.381 68.4867C114.154 67.8797 114.706 66.9873 115.037 65.8102C115.055 65.755 115.11 65.7368 115.202 65.755C115.313 65.7732 115.368 65.8008 115.368 65.8378C115.294 66.3527 115.23 66.9691 115.175 67.6865C115.12 68.404 115.092 69.0662 115.092 69.6733C115.092 69.9492 114.954 70.0872 114.678 70.0872ZM109.822 63.8511C109.822 63.0784 109.564 62.4896 109.049 62.0851C108.534 61.6806 107.761 61.478 106.731 61.478H104.524V60.7606H106.759C107.789 60.7606 108.552 60.5857 109.049 60.2363C109.546 59.887 109.794 59.3809 109.794 58.7187C109.794 58.6635 109.84 58.6359 109.932 58.6359C110.042 58.6359 110.098 58.6635 110.098 58.7187C110.098 59.3075 110.088 59.7672 110.07 60.0984C110.07 60.4295 110.07 60.77 110.07 61.1193C110.07 61.5608 110.079 62.0023 110.098 62.4438C110.134 62.8671 110.153 63.3362 110.153 63.8511C110.153 63.888 110.098 63.9062 109.987 63.9062C109.877 63.9062 109.822 63.888 109.822 63.8511Z" fill="white"/>
<path d="M16.7767 70.4183C14.698 70.4183 12.9137 70.032 11.4236 69.2594C9.95197 68.4685 8.82064 67.4106 8.02965 66.0861C7.25703 64.7616 6.87073 63.281 6.87073 61.6436C6.87073 60.2821 7.12828 59.0498 7.64334 57.9461C8.17683 56.8241 8.91264 55.8672 9.85081 55.0764C10.8074 54.2669 11.9203 53.6415 13.1896 53.2C14.4589 52.7585 15.8478 52.5378 17.3562 52.5378C18.184 52.5378 19.0302 52.6113 19.8948 52.7585C20.7778 52.8873 21.4952 53.0896 22.0471 53.3656C22.2126 53.4391 22.3138 53.5219 22.3506 53.6139C22.3874 53.6875 22.415 53.8163 22.4334 54.0002L22.7645 57.5874C22.7645 57.6243 22.7185 57.6608 22.6265 57.6977C22.5345 57.716 22.4702 57.6884 22.4334 57.615C21.8815 56.2353 21.0537 55.1592 19.95 54.3865C18.8462 53.6139 17.5494 53.2276 16.0593 53.2276C13.999 53.2276 12.4354 53.8991 11.3684 55.2419C10.3015 56.5846 9.76803 58.3782 9.76803 60.6226C9.76803 62.462 10.0992 64.09 10.7614 65.5067C11.442 66.9045 12.3526 67.9994 13.4931 68.7903C14.6521 69.5629 15.9673 69.9492 17.439 69.9492C18.2116 69.9492 18.8279 69.8664 19.2877 69.7009C19.7476 69.5353 20.0787 69.2136 20.2811 68.7351C20.5018 68.2566 20.6122 67.5486 20.6122 66.6104C20.6122 65.7274 20.557 65.0834 20.4467 64.6789C20.3363 64.2556 20.0787 63.9796 19.674 63.8511C19.2877 63.7225 18.6439 63.6579 17.7425 63.6579C17.6321 63.6579 17.577 63.5845 17.577 63.4372C17.577 63.2898 17.6229 63.2164 17.7149 63.2164C18.9474 63.2898 20.0696 63.3362 21.0813 63.3544C22.093 63.3544 23.1508 63.3268 24.2545 63.2716C24.3465 63.2716 24.3925 63.3362 24.3925 63.4648C24.3925 63.5933 24.3465 63.6579 24.2545 63.6579C23.905 63.6397 23.6475 63.7037 23.4819 63.8511C23.3164 63.9796 23.2152 64.2743 23.1784 64.734C23.1416 65.1938 23.1232 65.9112 23.1232 66.8863C23.1232 67.4934 23.1416 67.9443 23.1784 68.2384C23.2152 68.5325 23.2428 68.7533 23.2612 68.9006C23.298 69.0292 23.3164 69.1672 23.3164 69.3145C23.3164 69.4249 23.2888 69.4983 23.2336 69.5353C23.1968 69.5723 23.114 69.6087 22.9853 69.6457C21.9919 69.8664 20.9526 70.0502 19.8672 70.1975C18.8003 70.3449 17.7701 70.4183 16.7767 70.4183ZM40.1427 70.0872C39.8668 70.0872 39.4069 69.7284 38.763 69.011C38.1192 68.2754 37.3374 67.2357 36.4176 65.893C35.5162 64.5315 34.5045 62.9035 33.3823 61.0089L35.5898 60.3191C37.0798 62.637 38.3491 64.4857 39.3977 65.8654C40.4647 67.245 41.4028 68.2384 42.2122 68.8455C43.04 69.4525 43.831 69.756 44.5852 69.756C44.622 69.756 44.6404 69.8112 44.6404 69.9216C44.6404 70.032 44.622 70.0872 44.5852 70.0872C43.4263 70.0872 42.479 70.0872 41.7431 70.0872C41.0257 70.0872 40.4922 70.0872 40.1427 70.0872ZM33.4375 52.7585C35.0747 52.7585 36.3348 53.0713 37.2178 53.6967C38.1008 54.3038 38.5423 55.1499 38.5423 56.2353C38.5423 56.9345 38.3767 57.5967 38.0456 58.222C37.7145 58.8473 37.273 59.3991 36.7211 59.8776C36.1693 60.3561 35.5346 60.733 34.8172 61.0089C34.1182 61.2849 33.3915 61.4228 32.6373 61.4228C32.4166 61.4228 32.1774 61.4228 31.9199 61.4228C31.6624 61.4228 31.4324 61.4135 31.23 61.3953V67.8521C31.23 68.3858 31.2761 68.7903 31.368 69.0662C31.46 69.3421 31.6532 69.5259 31.9475 69.6181C32.2602 69.7102 32.7109 69.756 33.2995 69.756C33.3547 69.756 33.3823 69.8112 33.3823 69.9216C33.3823 70.032 33.3547 70.0872 33.2995 70.0872C32.8397 70.0872 32.3246 70.0778 31.7543 70.0596C31.1841 70.0414 30.5586 70.032 29.878 70.032C29.2342 70.032 28.6179 70.0414 28.0292 70.0596C27.4406 70.0778 26.9163 70.0872 26.4564 70.0872C26.4012 70.0872 26.3736 70.032 26.3736 69.9216C26.3736 69.8112 26.4012 69.756 26.4564 69.756C27.0634 69.756 27.5141 69.7102 27.8085 69.6181C28.1028 69.5259 28.3051 69.3421 28.4155 69.0662C28.5259 68.7903 28.5811 68.3858 28.5811 67.8521V55.0764C28.5811 54.5429 28.5259 54.1474 28.4155 53.8899C28.3236 53.6139 28.1304 53.43 27.8361 53.338C27.5417 53.2276 27.091 53.1724 26.484 53.1724C26.4472 53.1724 26.4288 53.1172 26.4288 53.0069C26.4288 52.8965 26.4472 52.8413 26.484 52.8413C26.9439 52.8413 27.459 52.8597 28.0292 52.8965C28.6179 52.9149 29.2342 52.9241 29.878 52.9241C30.4115 52.9241 31.0001 52.8965 31.6439 52.8413C32.2878 52.7861 32.8856 52.7585 33.4375 52.7585ZM35.8105 57.2562C35.8105 56.2077 35.6818 55.3981 35.4242 54.828C35.1851 54.2394 34.854 53.8347 34.4309 53.6139C34.0078 53.3932 33.5203 53.2828 32.9684 53.2828C32.5454 53.2828 32.205 53.338 31.9475 53.4484C31.69 53.5404 31.506 53.7243 31.3956 54.0002C31.2852 54.2578 31.23 54.6349 31.23 55.1316V60.6226C31.4876 60.6596 31.7635 60.6872 32.0578 60.7054C32.3522 60.7236 32.6097 60.733 32.8305 60.733C33.9158 60.733 34.6792 60.4847 35.1207 59.988C35.5806 59.4913 35.8105 58.5807 35.8105 57.2562ZM53.1276 70.4183C51.8031 70.4183 50.5982 70.1881 49.5129 69.7284C48.4459 69.25 47.5261 68.5971 46.7535 67.7693C45.9993 66.9415 45.4106 65.994 44.9875 64.9272C44.5828 63.8417 44.3805 62.6921 44.3805 61.478C44.3805 59.988 44.6656 58.6817 45.2359 57.5598C45.8245 56.4378 46.5971 55.5085 47.5537 54.7728C48.5103 54.0186 49.5588 53.4576 50.6994 53.0896C51.8399 52.7217 52.9712 52.5378 54.0933 52.5378C55.4544 52.5378 56.6685 52.7861 57.7358 53.2828C58.8208 53.7611 59.7407 54.4141 60.4951 55.2419C61.249 56.0697 61.8196 57.0079 62.2059 58.0565C62.6104 59.105 62.813 60.1811 62.813 61.2849C62.813 62.5724 62.5552 63.7683 62.0403 64.872C61.5249 65.9758 60.8169 66.9415 59.9157 67.7693C59.0327 68.5971 58.0023 69.25 56.8252 69.7284C55.6663 70.1881 54.4336 70.4183 53.1276 70.4183ZM54.0658 69.756C55.1695 69.756 56.1536 69.4619 57.0184 68.8731C57.9013 68.2842 58.5912 67.42 59.0879 66.2793C59.6027 65.1204 59.8605 63.7225 59.8605 62.0851C59.8605 60.3743 59.5845 58.8567 59.0327 57.5322C58.4808 56.2077 57.6894 55.1684 56.6596 54.4141C55.6293 53.6415 54.3969 53.2552 52.962 53.2552C51.1776 53.2552 49.7888 53.8991 48.7954 55.1867C47.8204 56.456 47.333 58.222 47.333 60.4847C47.333 61.8092 47.4985 63.0415 47.8297 64.1822C48.1608 65.3041 48.6206 66.2887 49.2093 67.1347C49.8164 67.9807 50.5246 68.6341 51.334 69.0938C52.1618 69.5353 53.0724 69.756 54.0658 69.756Z" fill="white"/>
</svg>
