<svg width="475" height="120" viewBox="0 0 475 120" fill="none" xmlns="http://www.w3.org/2000/svg">
<path d="M263.081 71.847C257.768 71.847 252.936 70.9223 248.582 69.0751C244.303 67.1525 240.613 64.5292 237.514 61.203C234.488 57.8767 232.129 54.0693 230.431 49.7829C228.808 45.421 227.996 40.802 227.996 35.9235C227.996 29.9362 229.141 24.6874 231.427 20.1793C233.789 15.6711 236.888 11.9368 240.724 8.98088C244.56 5.95022 248.766 3.69591 253.341 2.2175C257.917 0.739092 262.455 0 266.955 0C272.416 0 277.285 0.997888 281.564 2.99364C285.918 4.91554 289.606 7.5395 292.632 10.8657C295.658 14.192 297.944 17.9617 299.494 22.175C301.116 26.3882 301.929 30.7124 301.929 35.1474C301.929 40.3208 300.895 45.1261 298.83 49.5611C296.765 53.9961 293.922 57.8767 290.308 61.203C286.766 64.5292 282.633 67.1525 277.912 69.0751C273.263 70.9223 268.32 71.847 263.081 71.847ZM266.844 69.186C271.271 69.186 275.218 68.0041 278.687 65.638C282.228 63.2719 284.995 59.7993 286.987 55.2157C289.053 50.559 290.086 44.9421 290.086 38.3627C290.086 31.4885 288.98 25.3904 286.766 20.0684C284.552 14.7464 281.38 10.5702 277.248 7.5395C273.115 4.435 268.172 2.88276 262.417 2.88276C255.26 2.88276 249.689 5.46991 245.705 10.644C241.793 15.7442 239.839 22.8402 239.839 31.932C239.839 37.254 240.503 42.2057 241.831 46.7892C243.159 51.2974 245.003 55.2534 247.365 58.6529C249.8 62.0523 252.64 64.6778 255.887 66.525C259.207 68.299 262.86 69.186 266.844 69.186ZM378.427 1.21963C378.648 1.21963 378.759 1.44139 378.759 1.88489C378.759 2.32839 378.648 2.55013 378.427 2.55013C375.846 2.55013 373.447 3.548 371.233 5.54375C369.019 7.5395 367.213 10.4222 365.81 14.192L344.228 70.4056C344.155 70.7005 343.75 70.8491 343.01 70.8491C342.346 70.8491 341.941 70.7005 341.793 70.4056L313.791 10.4223C312.538 7.76126 311.246 5.80254 309.918 4.54588C308.589 3.21538 306.967 2.55013 305.048 2.55013C304.826 2.55013 304.716 2.32839 304.716 1.88489C304.716 1.44139 304.826 1.21963 305.048 1.21963C306.008 1.21963 306.783 1.25667 307.372 1.33051C308.036 1.40436 308.811 1.47842 309.696 1.55226C310.657 1.55226 311.91 1.55226 313.459 1.55226C317.001 1.55226 319.879 1.55226 322.092 1.55226C324.381 1.47842 326.262 1.40436 327.737 1.33051C329.286 1.25667 330.652 1.21963 331.832 1.21963C332.053 1.21963 332.164 1.44139 332.164 1.88489C332.164 2.32839 332.053 2.55013 331.832 2.55013C328.733 2.55013 326.63 3.32626 325.523 4.87851C324.492 6.43076 324.675 8.64826 326.076 11.531L347.437 57.8767L342.9 65.5271L362.821 13.7485C364.077 10.4223 364.15 7.72422 363.043 5.65463C361.936 3.58504 359.501 2.55013 355.738 2.55013C355.517 2.55013 355.406 2.32839 355.406 1.88489C355.406 1.44139 355.517 1.21963 355.738 1.21963C357.73 1.21963 359.649 1.29347 361.493 1.44138C363.339 1.51522 365.737 1.55226 368.687 1.55226C370.755 1.55226 372.415 1.51522 373.668 1.44138C374.996 1.29347 376.583 1.21963 378.427 1.21963Z" fill="white"/>
<path d="M189.613 119.401C188.219 119.401 187.222 119.035 186.625 118.304C186.027 117.505 185.728 116.507 185.728 115.31C185.728 113.514 186.359 111.485 187.621 109.223C188.883 106.895 190.51 104.466 192.502 101.938C194.56 99.4105 196.685 96.9158 198.877 94.4544C201.135 91.993 203.26 89.7311 205.252 87.6689C204.256 87.6689 203.16 87.935 201.965 88.4672C200.836 88.9994 199.674 89.6313 198.478 90.3631C196.685 91.5606 194.726 93.1572 192.601 95.1529C190.476 97.1487 188.351 99.2775 186.226 101.539C184.101 103.801 182.076 106.03 180.15 108.225C178.623 110.021 177.394 111.518 176.465 112.716C175.601 113.913 174.838 115.011 174.174 116.008C173.576 116.94 172.912 118.004 172.181 119.202C171.119 119.202 170.588 118.57 170.588 117.306C170.588 115.975 171.019 114.379 171.883 112.516C172.679 110.653 173.377 109.19 173.974 108.125C175.701 105.198 177.66 102.138 179.851 98.9449C182.109 95.6851 184.201 92.8245 186.127 90.3631C187.123 89.0326 188.185 88.068 189.314 87.4693C190.443 86.804 191.406 86.4049 192.203 86.2718C193 86.0723 193.398 85.9725 193.398 85.9725C193 86.5712 192.17 87.8352 190.908 89.7644C189.646 91.6936 188.185 93.9555 186.525 96.55C184.865 99.1444 183.172 101.772 181.445 104.433C184.168 101.306 187.09 98.2796 190.211 95.3525C193.332 92.3589 196.32 89.9307 199.176 88.068C200.039 87.4693 200.935 86.9704 201.865 86.5712C202.795 86.1721 203.758 85.9725 204.754 85.9725C206.547 85.9725 207.443 86.671 207.443 88.068C207.443 89.1324 206.812 90.3964 205.551 91.8599C204.023 93.6561 202.363 95.6518 200.57 97.8472C198.777 100.042 197.051 102.271 195.39 104.533C193.797 106.795 192.469 108.89 191.406 110.82C190.41 112.749 189.912 114.312 189.912 115.51C189.912 116.175 190.078 116.674 190.41 117.006C190.808 117.272 191.14 117.406 191.406 117.406C192.402 117.406 193.498 117.006 194.693 116.208C195.955 115.41 197.15 114.478 198.279 113.414C199.474 112.283 200.504 111.219 201.367 110.221C202.297 109.223 202.894 108.558 203.16 108.225C203.426 108.225 203.558 108.425 203.558 108.824C203.558 109.423 203.426 109.888 203.16 110.221C202.23 111.219 201.002 112.449 199.474 113.913C197.947 115.377 196.32 116.674 194.594 117.805C192.867 118.869 191.207 119.401 189.613 119.401ZM206.941 119.401C204.484 119.401 203.255 118.004 203.255 115.21C203.255 113.614 203.72 111.718 204.65 109.522C205.579 107.26 206.974 104.899 208.833 102.437C210.162 100.774 211.788 99.0114 213.714 97.1487C215.64 95.2194 217.732 93.39 219.99 91.6604C222.314 89.9307 224.671 88.5337 227.062 87.4693C229.453 86.3384 231.777 85.7729 234.035 85.7729C235.031 85.7729 235.728 85.9392 236.127 86.2718C236.525 86.5379 236.791 86.8373 236.923 87.1699C237.056 87.436 237.056 87.6356 236.923 87.7686C236.857 87.9017 236.757 87.935 236.625 87.8684C236.359 87.7354 235.828 87.6689 235.031 87.6689C232.64 87.6689 229.785 88.833 226.464 91.1614C223.21 93.4233 219.99 96.3836 216.802 100.043C214.544 102.57 212.685 105.065 211.224 107.527C209.763 109.921 208.8 111.917 208.335 113.514C208.203 114.046 208.136 114.512 208.136 114.911C208.136 115.842 208.501 116.308 209.232 116.308C209.697 116.308 210.328 116.108 211.124 115.709C211.921 115.243 212.951 114.478 214.212 113.414C216.205 111.684 218.163 109.655 220.089 107.327C222.081 104.999 224.04 102.637 225.966 100.242C227.892 97.7807 229.751 95.5188 231.544 93.4565C233.404 91.3943 235.164 89.8309 236.824 88.7665C238.949 87.3695 240.41 86.5712 241.207 86.3716C242.07 86.172 242.767 86.039 243.298 85.9725C242.966 86.3716 242.236 87.303 241.107 88.7665C239.978 90.2301 238.783 91.7934 237.521 93.4565C236.259 95.0531 235.23 96.3836 234.433 97.448C233.238 99.1777 231.943 101.04 230.548 103.036C229.22 105.032 227.992 106.928 226.863 108.724C225.8 110.454 225.07 111.884 224.671 113.015C224.339 114.146 224.173 114.977 224.173 115.51C224.173 116.574 224.605 117.106 225.468 117.106C226.066 117.106 226.763 116.873 227.56 116.408C228.423 115.875 229.287 115.277 230.15 114.611C231.279 113.68 232.341 112.716 233.337 111.718C234.334 110.653 235.363 109.489 236.425 108.225C236.691 108.225 236.824 108.425 236.824 108.824C236.824 109.423 236.691 109.888 236.425 110.221C235.562 111.219 234.5 112.316 233.238 113.514C232.042 114.711 230.847 115.776 229.652 116.707C228.789 117.439 227.792 118.071 226.664 118.603C225.535 119.135 224.439 119.401 223.376 119.401C221.849 119.401 220.787 119.035 220.189 118.304C219.591 117.572 219.292 116.64 219.292 115.51C219.292 114.179 219.591 112.749 220.189 111.219C220.787 109.622 221.451 108.125 222.181 106.728C221.318 107.793 220.222 109.09 218.894 110.62C217.566 112.084 216.371 113.314 215.308 114.312C213.847 115.643 212.453 116.84 211.124 117.904C209.796 118.902 208.402 119.401 206.941 119.401ZM262.875 81.7814C261.547 81.7814 260.883 81.2492 260.883 80.1848C260.883 79.8522 260.983 79.4863 261.182 79.0871C261.514 78.2888 262.078 77.5903 262.875 76.9916C263.738 76.3263 264.568 75.9937 265.365 75.9937C266.627 75.9937 267.258 76.5259 267.258 77.5903C267.258 78.5882 266.793 79.5195 265.863 80.3844C264.934 81.2492 263.938 81.7149 262.875 81.7814ZM241.26 119.501C239.467 119.501 238.205 119.035 237.475 118.104C236.678 117.106 236.279 115.875 236.279 114.412C236.279 112.483 236.877 110.42 238.072 108.225C239.201 105.963 240.629 103.735 242.355 101.539C244.082 99.2775 245.842 97.1819 247.635 95.2527C249.428 93.257 250.988 91.6271 252.316 90.3631C253.578 89.0991 254.873 88.1678 256.201 87.5691C257.529 86.9704 258.658 86.5712 259.588 86.3716C260.584 86.1055 261.082 85.9725 261.082 85.9725C259.621 87.6356 257.629 89.9972 255.106 93.0574C252.582 96.1175 250.092 99.3772 247.635 102.837C247.436 103.103 246.971 103.768 246.24 104.832C245.51 105.897 244.68 107.127 243.75 108.524C242.887 109.921 242.123 111.285 241.459 112.616C240.861 113.946 240.562 115.011 240.562 115.809C240.562 117.073 241.227 117.705 242.555 117.705C243.551 117.705 244.613 117.339 245.742 116.607C246.938 115.875 248.133 114.977 249.328 113.913C250.523 112.849 251.586 111.817 252.516 110.82C253.512 109.755 254.275 108.89 254.807 108.225C255.072 108.225 255.205 108.425 255.205 108.824C255.205 109.423 255.072 109.888 254.807 110.221C252.283 113.148 249.992 115.443 247.934 117.106C245.941 118.703 243.717 119.501 241.26 119.501ZM259.586 119.601C256.265 119.601 254.605 118.071 254.605 115.011C254.605 114.013 254.838 112.849 255.303 111.518C255.767 110.188 256.631 108.425 257.892 106.229C259.619 103.236 262.043 99.7099 265.164 95.6519C268.351 91.5938 271.738 87.6356 275.324 83.7771C278.445 80.2513 281.832 77.0249 285.484 74.0978C289.203 71.1041 293.055 69.0419 297.039 67.9109C297.637 67.7114 298.334 67.545 299.131 67.412C299.928 67.2789 300.758 67.2124 301.621 67.2124C303.215 67.2124 304.576 67.4453 305.705 67.9109C306.236 68.177 306.768 68.5429 307.299 69.0086C307.83 69.4078 308.195 70.0065 308.395 70.8048C307.664 70.206 306.834 69.7736 305.904 69.5075C304.975 69.1749 303.846 69.0086 302.518 69.0086C299.064 69.0086 295.744 70.1395 292.557 72.4014C289.369 74.6632 286.182 77.5903 282.994 81.1827C279.873 84.7085 276.586 88.4672 273.133 92.4587C271.805 93.9887 270.344 95.8847 268.75 98.1466C267.156 100.408 265.629 102.67 264.168 104.932C262.773 107.194 261.644 109.123 260.781 110.72C260.316 111.452 259.951 112.25 259.685 113.115C259.486 113.913 259.387 114.578 259.387 115.11C259.387 116.707 259.984 117.505 261.18 117.505C262.441 117.505 263.836 116.907 265.363 115.709C266.957 114.512 268.451 113.181 269.846 111.718C271.307 110.254 272.402 109.09 273.133 108.225C273.398 108.225 273.531 108.425 273.531 108.824C273.531 109.423 273.398 109.888 273.133 110.221C270.476 113.281 268.019 115.609 265.762 117.206C263.57 118.803 261.512 119.601 259.586 119.601ZM283.399 120C282.071 120 280.776 119.867 279.514 119.601C278.319 119.335 277.257 118.869 276.327 118.204C275.596 117.672 274.999 116.94 274.534 116.008C274.003 115.077 273.737 113.88 273.737 112.416C273.737 110.687 274.169 109.356 275.032 108.425C275.829 107.493 276.692 107.028 277.622 107.028C278.352 106.096 279.348 104.799 280.61 103.136C281.872 101.406 283.266 99.5103 284.794 97.448C286.387 95.3858 288.014 93.3235 289.675 91.2612C291.335 89.1324 292.895 87.2364 294.356 85.5733C295.286 84.642 296.249 83.6441 297.245 82.5797C298.307 81.5153 299.47 80.6172 300.731 79.8854C302.059 79.0871 303.454 78.688 304.915 78.688C306.044 78.688 306.841 78.9541 307.306 79.4863C307.837 80.0185 308.102 80.6505 308.102 81.3822C308.102 81.7814 308.003 82.1473 307.804 82.4799C307.073 82.3469 306.044 82.4799 304.716 82.8791C303.388 83.2117 301.927 83.8437 300.333 84.775C298.606 85.8394 296.847 87.1699 295.054 88.7665C294.987 89.5648 294.888 90.7955 294.755 92.4587C294.688 94.0553 294.589 95.8847 294.456 97.947C294.323 99.9427 294.091 101.972 293.759 104.034C293.493 106.03 293.128 107.793 292.663 109.323C292.331 110.387 291.8 111.585 291.069 112.915C290.339 114.179 289.343 115.377 288.081 116.507C286.886 117.572 285.391 118.304 283.598 118.703C285.989 118.703 287.981 118.337 289.575 117.605C291.169 116.873 292.497 116.042 293.559 115.11C294.688 114.113 295.585 113.314 296.249 112.716C296.78 112.183 297.511 111.418 298.44 110.42C299.37 109.423 300.034 108.691 300.432 108.225C300.698 108.225 300.831 108.425 300.831 108.824C300.831 109.423 300.698 109.888 300.432 110.221C297.643 113.214 295.319 115.41 293.46 116.807C291.8 118.071 290.106 118.902 288.38 119.301C286.653 119.767 284.993 120 283.399 120ZM279.913 118.104C281.042 118.104 282.071 117.672 283.001 116.807C283.997 115.875 284.893 114.811 285.69 113.614C286.487 112.35 287.118 111.185 287.583 110.121C288.313 108.524 289.077 106.495 289.874 104.034C290.671 101.573 291.434 99.0779 292.165 96.55C292.895 93.9555 293.493 91.7269 293.958 89.8642C292.098 91.6604 290.239 93.6229 288.38 95.7516C286.587 97.8804 284.927 99.9095 283.399 101.839C281.872 103.768 280.61 105.365 279.614 106.628C278.751 107.759 278.087 108.957 277.622 110.221C277.157 111.485 276.925 112.682 276.925 113.813C276.925 115.077 277.19 116.108 277.721 116.907C278.253 117.705 278.983 118.104 279.913 118.104ZM335.4 119.701C334.205 119.701 333.341 119.401 332.81 118.803C332.279 118.204 332.013 117.439 332.013 116.507C332.013 115.709 332.212 114.578 332.611 113.115C333.474 110.72 334.736 108.292 336.396 105.83C338.056 103.302 339.849 100.907 341.775 98.6455C343.767 96.3171 345.66 94.2216 347.453 92.3589C349.246 90.4297 350.674 88.8663 351.736 87.6689C350.74 87.6689 349.644 87.935 348.449 88.4672C347.32 88.9994 346.158 89.6313 344.963 90.3631C342.107 92.3589 339.218 94.7205 336.297 97.448C333.441 100.176 330.752 102.97 328.228 105.83C325.771 108.691 323.679 111.318 321.953 113.713C320.226 116.108 319.13 117.971 318.666 119.301C317.603 119.301 317.072 118.636 317.072 117.306C317.072 116.175 317.404 114.778 318.068 113.115C318.732 111.385 319.562 109.655 320.558 107.926C322.816 104.134 325.572 100.043 328.826 95.6519C332.146 91.1947 335.566 87.0369 339.086 83.1784C342.207 79.7191 345.593 76.5924 349.246 73.7984C352.898 71.0043 356.717 69.0419 360.701 67.9109C361.299 67.7114 361.996 67.545 362.793 67.412C363.59 67.2789 364.42 67.2124 365.283 67.2124C366.877 67.2124 368.238 67.4453 369.367 67.9109C369.898 68.177 370.429 68.5429 370.961 69.0086C371.492 69.4078 371.857 70.0065 372.056 70.8048C371.326 70.206 370.496 69.7736 369.566 69.5075C368.637 69.1749 367.508 69.0086 366.179 69.0086C363.59 69.0086 360.933 69.7736 358.211 71.3037C355.554 72.7673 352.998 74.5634 350.541 76.6922C348.15 78.821 346.025 80.9498 344.166 83.0786C342.373 85.1409 340.978 86.7708 339.982 87.9682C337.392 91.1614 335.101 94.155 333.109 96.9491C331.183 99.6766 329.556 102.005 328.228 103.934C330.884 101.007 333.773 98.08 336.894 95.1529C340.082 92.1593 343.004 89.7976 345.66 88.068C346.523 87.4693 347.42 86.9704 348.349 86.5712C349.279 86.1721 350.242 85.9725 351.238 85.9725C353.031 85.9725 353.927 86.671 353.927 88.068C353.927 89.1324 353.297 90.3964 352.035 91.8599C349.711 94.5209 347.353 97.4813 344.963 100.741C342.572 103.934 340.547 107.127 338.886 110.321C338.621 110.786 338.156 111.718 337.492 113.115C336.894 114.445 336.595 115.576 336.595 116.507C336.595 117.306 336.961 117.705 337.691 117.705C339.218 117.705 341.078 116.74 343.269 114.811C345.461 112.815 347.586 110.62 349.644 108.225C349.91 108.225 350.043 108.425 350.043 108.824C350.043 109.423 349.91 109.888 349.644 110.221C348.715 111.219 347.519 112.483 346.058 114.013C344.664 115.476 343.07 116.807 341.277 118.004C339.484 119.135 337.525 119.701 335.4 119.701ZM355.517 119.8C353.591 119.8 352.23 119.335 351.433 118.403C350.57 117.406 350.138 116.175 350.138 114.711C350.138 112.849 350.669 110.653 351.732 108.125C352.861 105.597 354.355 103.036 356.214 100.442C358.073 97.8472 360.165 95.4523 362.489 93.257C364.814 90.9951 367.171 89.1989 369.562 87.8684C372.019 86.4714 374.376 85.7729 376.634 85.7729C378.294 85.7729 379.49 86.2053 380.22 87.0701C380.951 87.9349 381.316 89.0659 381.316 90.4629C381.316 92.3256 380.784 94.5542 379.722 97.1487C378.659 99.6766 377.199 102.271 375.339 104.932C373.546 107.527 371.521 109.955 369.263 112.217C367.072 114.478 364.78 116.308 362.39 117.705C359.999 119.102 357.708 119.8 355.517 119.8ZM356.712 117.904C358.107 117.904 359.767 117.206 361.693 115.809C363.685 114.345 365.71 112.483 367.769 110.221C369.827 107.959 371.72 105.564 373.447 103.036C375.24 100.442 376.667 98.0135 377.73 95.7516C378.859 93.4233 379.423 91.5273 379.423 90.0638C379.423 88.4672 378.659 87.6689 377.132 87.6689C375.87 87.6689 374.277 88.4339 372.351 89.964C370.491 91.4275 368.532 93.3235 366.474 95.6519C364.482 97.9802 362.589 100.442 360.796 103.036C359.003 105.631 357.542 108.092 356.413 110.42C355.351 112.749 354.82 114.578 354.82 115.909C354.82 117.239 355.45 117.904 356.712 117.904ZM381.495 119.301C379.901 119.301 378.772 118.936 378.108 118.204C377.444 117.472 377.112 116.541 377.112 115.41C377.112 114.279 377.378 113.048 377.909 111.718C378.374 110.321 378.972 108.957 379.702 107.626C380.964 105.498 382.392 103.369 383.985 101.24C385.645 99.0446 387.306 97.0156 388.966 95.1529C390.692 93.2902 392.22 91.6936 393.548 90.3631C394.81 89.0991 396.105 88.1678 397.433 87.5691C398.761 86.9704 399.89 86.5712 400.819 86.3716C401.815 86.1055 402.314 85.9725 402.314 85.9725C400.853 87.6356 398.86 89.9972 396.337 93.0574C393.88 96.1175 391.39 99.3772 388.866 102.837C388.601 103.169 388.102 103.868 387.372 104.932C386.708 105.996 385.978 107.194 385.181 108.524C384.384 109.788 383.686 111.052 383.089 112.316C382.558 113.514 382.292 114.478 382.292 115.21C382.292 115.942 382.69 116.275 383.487 116.208C384.351 116.142 385.479 115.51 386.874 114.312C388.269 113.115 389.763 111.651 391.356 109.921C392.95 108.192 394.444 106.495 395.839 104.832C397.3 103.103 398.495 101.672 399.425 100.541C400.155 99.6766 401.052 98.6122 402.114 97.3483C403.177 96.0178 404.273 94.654 405.401 93.257C406.53 91.8599 407.56 90.6292 408.489 89.5648C409.552 88.3674 410.681 87.5358 411.876 87.0701C413.071 86.5379 414.101 86.2386 414.964 86.172C415.894 86.039 416.359 85.9725 416.359 85.9725C415.827 86.6377 414.765 87.935 413.171 89.8642C411.644 91.7934 409.917 94.0885 407.991 96.7495C406.066 99.344 404.239 102.072 402.513 104.932C400.786 107.726 399.458 110.387 398.528 112.915C398.064 114.046 397.831 114.977 397.831 115.709C397.831 116.374 397.997 116.84 398.329 117.106C398.661 117.306 399.026 117.406 399.425 117.406C400.355 117.406 401.384 117.006 402.513 116.208C403.708 115.41 404.837 114.478 405.9 113.414C407.028 112.283 408.024 111.219 408.888 110.221C409.751 109.223 410.316 108.558 410.581 108.225C410.847 108.225 410.98 108.425 410.98 108.824C410.98 109.423 410.847 109.888 410.581 110.221C409.585 111.418 408.357 112.716 406.896 114.113C405.501 115.51 404.007 116.74 402.413 117.805C400.886 118.803 399.358 119.301 397.831 119.301C396.171 119.301 395.009 118.902 394.345 118.104C393.681 117.306 393.349 116.308 393.349 115.11C393.349 113.979 393.581 112.749 394.046 111.418C394.511 110.021 395.075 108.724 395.739 107.527C394.942 108.325 393.979 109.389 392.851 110.72C391.788 111.984 390.593 113.281 389.265 114.611C387.936 115.942 386.608 117.073 385.28 118.004C383.952 118.869 382.69 119.301 381.495 119.301ZM420.887 120C419.559 120 418.264 119.867 417.003 119.601C415.807 119.335 414.745 118.869 413.815 118.204C413.085 117.672 412.487 116.94 412.022 116.008C411.491 115.077 411.225 113.88 411.225 112.416C411.225 110.687 411.657 109.356 412.52 108.425C413.317 107.493 414.18 107.028 415.11 107.028C415.841 106.096 416.837 104.799 418.098 103.136C419.36 101.406 420.755 99.5103 422.282 97.448C423.876 95.3858 425.503 93.3235 427.163 91.2612C428.823 89.1324 430.384 87.2364 431.845 85.5733C432.774 84.642 433.737 83.6441 434.733 82.5797C435.796 81.5153 436.958 80.6172 438.22 79.8854C439.548 79.0871 440.942 78.688 442.403 78.688C443.532 78.688 444.329 78.9541 444.794 79.4863C445.325 80.0185 445.591 80.6505 445.591 81.3822C445.591 81.7814 445.491 82.1473 445.292 82.4799C444.561 82.3469 443.532 82.4799 442.204 82.8791C440.876 83.2117 439.415 83.8437 437.821 84.775C436.095 85.8394 434.335 87.1699 432.542 88.7665C432.475 89.5648 432.376 90.7955 432.243 92.4587C432.177 94.0553 432.077 95.8847 431.944 97.947C431.811 99.9427 431.579 101.972 431.247 104.034C430.981 106.03 430.616 107.793 430.151 109.323C429.819 110.387 429.288 111.585 428.557 112.915C427.827 114.179 426.831 115.377 425.569 116.507C424.374 117.572 422.88 118.304 421.087 118.703C423.477 118.703 425.47 118.337 427.063 117.605C428.657 116.873 429.985 116.042 431.048 115.11C432.177 114.113 433.073 113.314 433.737 112.716C434.268 112.183 434.999 111.418 435.929 110.42C436.858 109.423 437.522 108.691 437.921 108.225C438.186 108.225 438.319 108.425 438.319 108.824C438.319 109.423 438.186 109.888 437.921 110.221C435.132 113.214 432.807 115.41 430.948 116.807C429.288 118.071 427.595 118.902 425.868 119.301C424.141 119.767 422.481 120 420.887 120ZM417.401 118.104C418.53 118.104 419.559 117.672 420.489 116.807C421.485 115.875 422.382 114.811 423.179 113.614C423.975 112.35 424.606 111.185 425.071 110.121C425.802 108.524 426.565 106.495 427.362 104.034C428.159 101.573 428.923 99.0779 429.653 96.55C430.384 93.9555 430.981 91.7269 431.446 89.8642C429.587 91.6604 427.727 93.6229 425.868 95.7516C424.075 97.8804 422.415 99.9095 420.887 101.839C419.36 103.768 418.098 105.365 417.102 106.628C416.239 107.759 415.575 108.957 415.11 110.221C414.645 111.485 414.413 112.682 414.413 113.813C414.413 115.077 414.678 116.108 415.21 116.907C415.741 117.705 416.471 118.104 417.401 118.104ZM447.474 120C444.42 120 442.262 119.335 441 118.004C439.738 116.674 439.107 114.878 439.107 112.616C439.107 110.42 439.705 108.125 440.9 105.73C442.162 103.269 443.722 100.941 445.582 98.7453C446.711 97.4148 448.105 96.0177 449.765 94.5542C451.426 93.0906 453.219 91.7269 455.144 90.4629C457.07 89.1324 458.963 88.068 460.822 87.2697C462.748 86.4049 464.441 85.9725 465.902 85.9725C466.699 85.9725 467.43 86.1721 468.094 86.5712C468.758 86.9038 469.09 87.6688 469.09 88.8663C469.09 90.5294 468.293 92.126 466.699 93.6561C465.105 95.1196 463.312 96.4834 461.32 97.7474C459.062 99.2109 456.705 100.442 454.248 101.44C451.791 102.437 449.666 103.202 447.873 103.735C446.877 105.331 446.08 106.961 445.482 108.624C444.885 110.287 444.586 111.917 444.586 113.514C444.586 115.243 444.984 116.441 445.781 117.106C446.644 117.705 447.64 118.004 448.769 118.004C450.828 118.004 452.687 117.539 454.348 116.607C456.074 115.609 457.668 114.345 459.129 112.815C460.59 111.285 461.984 109.755 463.312 108.225C463.578 108.225 463.711 108.425 463.711 108.824C463.711 109.423 463.578 109.888 463.312 110.221C461.984 111.751 460.523 113.281 458.93 114.811C457.402 116.341 455.709 117.605 453.849 118.603C451.99 119.534 449.865 120 447.474 120ZM449.068 102.338C450.795 101.739 452.82 100.907 455.144 99.8429C457.535 98.7785 459.627 97.6143 461.42 96.3504C461.818 96.0843 462.516 95.552 463.512 94.7538C464.508 93.8889 465.437 92.9576 466.301 91.9597C467.164 90.8953 467.596 89.964 467.596 89.1657C467.596 88.1013 467.064 87.5691 466.002 87.5691C464.873 87.5691 463.578 88.068 462.117 89.0659C460.723 90.0638 459.594 90.9286 458.73 91.6604C457.137 93.1239 455.476 94.7538 453.75 96.55C452.023 98.3461 450.463 100.275 449.068 102.338ZM470.318 119.601C469.123 119.601 468.525 119.069 468.525 118.004C468.525 116.94 469.023 115.975 470.02 115.11C471.082 114.246 472.145 113.813 473.207 113.813C474.402 113.813 475 114.379 475 115.51C475 116.574 474.502 117.539 473.506 118.403C472.51 119.202 471.447 119.601 470.318 119.601Z" fill="white"/>
<path d="M432.418 70.5165H377.743C377.522 70.5165 377.411 70.2947 377.411 69.8512C377.411 69.4077 377.522 69.186 377.743 69.186C380.178 69.186 381.986 69.0019 383.166 68.6316C384.346 68.2613 385.121 67.5229 385.491 66.4141C385.933 65.3054 386.155 63.6799 386.155 61.5356V10.2005C386.155 8.05686 385.933 6.4678 385.491 5.43289C385.121 4.32415 384.346 3.58505 383.166 3.2154C381.986 2.7719 380.178 2.55014 377.743 2.55014C377.522 2.55014 377.411 2.3284 377.411 1.8849C377.411 1.4414 377.522 1.21964 377.743 1.21964H423.785C424.522 1.21964 424.892 1.55226 424.892 2.21751L425.113 16.6313C425.113 16.7798 424.929 16.8907 424.56 16.9639C424.19 16.9639 423.933 16.853 423.785 16.6313C422.973 12.418 421.277 9.27648 418.694 7.20688C416.111 5.13729 412.717 4.1024 408.511 4.1024H403.974C402.13 4.1024 400.653 4.32414 399.547 4.76764C398.513 5.1373 397.776 5.80255 397.333 6.76339C396.89 7.65039 396.669 8.87002 396.669 10.4223V61.0921C396.669 62.6444 396.853 63.9372 397.222 64.9727C397.665 65.9329 398.329 66.6359 399.215 67.0794C400.1 67.4497 401.355 67.6337 402.978 67.6337H408.401C413.419 67.6337 424.117 66.4518 427.216 64.0857C430.315 61.6465 432.529 58.0608 433.857 53.3309C433.93 53.1091 434.151 53.0359 434.521 53.1091C434.963 53.1823 435.185 53.2932 435.185 53.4418C434.89 55.5107 434.631 57.9876 434.41 60.8704C434.189 63.7531 434.078 66.4141 434.078 68.8534C434.078 69.9621 433.525 70.5165 432.418 70.5165ZM412.939 45.4587C412.939 42.3542 411.905 39.9882 409.84 38.3628C407.774 36.7373 404.675 35.9235 400.543 35.9235H391.688V33.0408H400.653C404.786 33.0408 407.847 32.3378 409.84 30.9341C411.832 29.5305 412.828 27.497 412.828 24.836C412.828 24.6143 413.012 24.5034 413.381 24.5034C413.824 24.5034 414.045 24.6143 414.045 24.836C414.045 27.2021 414.008 29.0493 413.935 30.3798C413.935 31.7103 413.935 33.0785 413.935 34.4821C413.935 36.2561 413.972 38.0301 414.045 39.8041C414.194 41.5049 414.267 43.3898 414.267 45.4587C414.267 45.6073 414.045 45.6805 413.603 45.6805C413.16 45.6805 412.939 45.6073 412.939 45.4587Z" fill="white"/>
<path d="M39.7333 71.847C31.3955 71.847 24.2384 70.2947 18.2618 67.1902C12.3589 64.0125 7.82115 59.7616 4.64847 54.4396C1.54949 49.1176 0 43.1681 0 36.5887C0 31.1182 1.03307 26.1665 3.09898 21.7315C5.23882 17.2233 8.19015 13.3782 11.9532 10.2005C15.79 6.9481 20.254 4.43501 25.3452 2.66101C30.4364 0.88701 36.0072 0 42.0575 0C45.3779 0 48.7719 0.295596 52.2399 0.887003C55.7816 1.40435 58.6592 2.2175 60.8728 3.32625C61.5368 3.62184 61.9426 3.95448 62.0902 4.32413C62.2378 4.61973 62.3485 5.13728 62.4222 5.87638L63.7504 20.2901C63.7504 20.4387 63.566 20.5851 63.197 20.7336C62.828 20.8068 62.5699 20.6959 62.4222 20.401C60.2087 14.8573 56.8884 10.5331 52.4612 7.42864C48.0341 4.32414 42.8323 2.77187 36.8557 2.77187C28.5918 2.77187 22.3199 5.46991 18.0405 10.8657C13.761 16.2609 11.6212 23.4678 11.6212 32.4864C11.6212 39.8773 12.9493 46.4189 15.6056 52.1112C18.3355 57.7282 21.9879 62.1277 26.5627 65.3054C31.2111 68.4099 36.4867 69.9621 42.3896 69.9621C45.4885 69.9621 47.9604 69.6295 49.805 68.9642C51.6495 68.299 52.9777 67.0062 53.7894 65.0836C54.6748 63.161 55.1175 60.316 55.1175 56.5462C55.1175 52.9982 54.8962 50.4104 54.4534 48.785C54.0107 47.0842 52.9777 45.9754 51.3545 45.4587C49.805 44.9421 47.2224 44.6826 43.607 44.6826C43.1643 44.6826 42.943 44.3877 42.943 43.7956C42.943 43.2035 43.1273 42.9086 43.4963 42.9086C48.4399 43.2035 52.9409 43.3898 56.999 43.463C61.0571 43.463 65.2999 43.3521 69.727 43.1304C70.096 43.1304 70.2804 43.3898 70.2804 43.9065C70.2804 44.4232 70.096 44.6826 69.727 44.6826C68.3251 44.6094 67.2921 44.8667 66.628 45.4587C65.9639 45.9754 65.5582 47.1596 65.4105 49.0067C65.2629 50.8539 65.1892 53.7367 65.1892 57.655C65.1892 60.0942 65.2629 61.9059 65.4105 63.0879C65.5582 64.2698 65.6689 65.1568 65.7426 65.7489C65.8902 66.2655 65.9639 66.8199 65.9639 67.412C65.9639 67.8555 65.8532 68.1504 65.6319 68.299C65.4842 68.4475 65.1522 68.5939 64.6358 68.7425C60.6514 69.6295 56.4826 70.3679 52.1292 70.96C47.8497 71.552 43.7177 71.847 39.7333 71.847ZM133.455 70.5165C132.348 70.5165 130.503 69.0751 127.921 66.1924C125.339 63.2364 122.203 59.0587 118.513 53.6635C114.898 48.1929 110.84 41.6513 106.339 34.0386L115.193 31.2667C121.17 40.5802 126.261 48.0089 130.466 53.5526C134.746 59.0964 138.509 63.0879 141.756 65.5271C145.076 67.9663 148.249 69.186 151.274 69.186C151.422 69.186 151.495 69.4077 151.495 69.8512C151.495 70.2947 151.422 70.5165 151.274 70.5165C146.625 70.5165 142.826 70.5165 139.874 70.5165C136.996 70.5165 134.857 70.5165 133.455 70.5165ZM106.56 0.887003C113.127 0.887003 118.181 2.14367 121.723 4.65676C125.265 7.09601 127.035 10.4961 127.035 14.8573C127.035 17.6668 126.371 20.3278 125.043 22.8402C123.715 25.3527 121.944 27.5702 119.731 29.4927C117.517 31.4153 114.972 32.9299 112.094 34.0386C109.29 35.1474 106.376 35.7017 103.35 35.7017C102.465 35.7017 101.506 35.7017 100.473 35.7017C99.44 35.7017 98.5176 35.664 97.7059 35.5909V61.5356C97.7059 63.6799 97.8905 65.3054 98.2593 66.4141C98.6283 67.5229 99.403 68.2613 100.583 68.6316C101.838 69.0019 103.646 69.186 106.007 69.186C106.228 69.186 106.339 69.4077 106.339 69.8512C106.339 70.2947 106.228 70.5165 106.007 70.5165C104.162 70.5165 102.096 70.4788 99.8087 70.4056C97.5215 70.3324 95.0128 70.2947 92.2826 70.2947C89.7003 70.2947 87.2284 70.3324 84.8672 70.4056C82.5063 70.4788 80.4034 70.5165 78.5586 70.5165C78.3373 70.5165 78.2266 70.2947 78.2266 69.8512C78.2266 69.4077 78.3373 69.186 78.5586 69.186C80.9935 69.186 82.8013 69.0019 83.9818 68.6316C85.1625 68.2613 85.974 67.5229 86.4167 66.4141C86.8594 65.3054 87.0808 63.6799 87.0808 61.5356V10.2005C87.0808 8.05685 86.8594 6.46779 86.4167 5.43288C86.0479 4.32413 85.2732 3.58504 84.0925 3.21538C82.912 2.77188 81.1042 2.55013 78.6693 2.55013C78.5219 2.55013 78.4479 2.32839 78.4479 1.88489C78.4479 1.44139 78.5219 1.21963 78.6693 1.21963C80.5141 1.21963 82.58 1.29347 84.8672 1.44138C87.2284 1.51522 89.7003 1.55226 92.2826 1.55226C94.4225 1.55226 96.7837 1.44138 99.366 1.21963C101.949 0.997881 104.347 0.887003 106.56 0.887003ZM116.078 18.9596C116.078 14.7464 115.562 11.4933 114.529 9.20262C113.57 6.83722 112.242 5.21113 110.544 4.32413C108.848 3.43713 106.892 2.99364 104.679 2.99364C102.982 2.99364 101.617 3.21538 100.583 3.65888C99.5506 4.02853 98.8126 4.76763 98.3699 5.87638C97.9272 6.91128 97.7059 8.42651 97.7059 10.4223V32.4864C98.7389 32.6349 99.8457 32.7458 101.026 32.819C102.207 32.8922 103.24 32.9299 104.125 32.9299C108.479 32.9299 111.541 31.932 113.311 29.9362C115.156 27.9405 116.078 24.2816 116.078 18.9596ZM185.537 71.847C180.225 71.847 175.392 70.9223 171.039 69.0751C166.759 67.1525 163.07 64.5292 159.971 61.203C156.946 57.8767 154.584 54.0693 152.888 49.7829C151.264 45.421 150.453 40.802 150.453 35.9235C150.453 29.9362 151.596 24.6874 153.884 20.1793C156.245 15.6711 159.344 11.9368 163.181 8.98088C167.017 5.95022 171.223 3.69591 175.798 2.2175C180.372 0.739092 184.91 0 189.411 0C194.87 0 199.74 0.997888 204.021 2.99364C208.373 4.91554 212.063 7.5395 215.089 10.8657C218.113 14.192 220.401 17.9617 221.951 22.175C223.573 26.3882 224.386 30.7124 224.386 35.1474C224.386 40.3208 223.352 45.1261 221.287 49.5611C219.219 53.9961 216.379 57.8767 212.765 61.203C209.223 64.5292 205.09 67.1525 200.369 69.0751C195.72 70.9223 190.776 71.847 185.537 71.847ZM189.301 69.186C193.728 69.186 197.675 68.0041 201.143 65.638C204.685 63.2719 207.452 59.7993 209.444 55.2157C211.51 50.559 212.543 44.9421 212.543 38.3627C212.543 31.4885 211.437 25.3904 209.223 20.0684C207.009 14.7464 203.835 10.5702 199.705 7.5395C195.572 4.435 190.629 2.88276 184.873 2.88276C177.716 2.88276 172.145 5.46991 168.161 10.644C164.25 15.7442 162.295 22.8402 162.295 31.932C162.295 37.254 162.959 42.2057 164.287 46.7892C165.616 51.2974 167.46 55.2534 169.821 58.6529C172.256 62.0523 175.097 64.6778 178.343 66.525C181.664 68.299 185.316 69.186 189.301 69.186Z" fill="white"/>
</svg>
