<svg width="218" height="314" viewBox="0 0 218 314" fill="none" xmlns="http://www.w3.org/2000/svg">
<g filter="url(#filter0_f_2017_140)">
<path fill-rule="evenodd" clip-rule="evenodd" d="M1.40671 18.5424C2.70179 22.5009 12.167 32.5967 17.6557 35.8731C20.1138 37.3403 22.1301 38.7518 22.1366 39.0091C22.1432 39.2663 17.662 38.2909 12.1782 36.8407C6.6944 35.3921 1.8944 34.5173 1.5131 34.8972C1.13103 35.278 2.41032 36.6975 4.35472 38.0511C7.61598 40.3204 7.6589 40.4359 4.91054 39.5357C2.03968 38.5966 2.05021 38.6967 5.18548 42.2371C6.97659 44.2592 10.7743 47.1266 13.6255 48.6102C16.4765 50.0921 18.6986 51.4238 18.5632 51.5682C18.427 51.7135 15.0388 51.0251 11.0347 50.0396C6.3314 48.8822 4.1495 48.8155 4.87297 49.8505C6.10584 51.6137 21.0699 57.9324 28.0997 59.6571L32.5519 60.7498L28.0796 60.5327C25.6205 60.4125 19.2419 58.9874 13.9056 57.3649L4.20233 54.4159L8.26772 57.5595C10.5039 59.2883 15.2411 62.0315 18.7946 63.6569L25.2568 66.6115L19.3446 66.394C14.5104 66.2171 13.73 66.4659 15.0614 67.765C15.9567 68.6385 20.1865 70.6712 24.4624 72.2827C28.7383 73.8941 32.1356 75.3188 32.0134 75.4491C31.8919 75.5786 28.4368 75.1494 24.3363 74.4943C13.3258 72.7363 12.8431 74.3494 23.0653 78.7443C31.6715 82.4441 40.6119 83.8782 56.311 84.0773C74.9772 84.3136 80.9906 85.4634 85.0179 89.5632C88.5578 93.1658 92.9057 99.6259 90.3172 97.4352C89.4266 96.6814 73.5021 93.9375 54.9286 91.3391C36.3559 88.7399 20.4693 86.3229 19.6264 85.9685C16.4546 84.6374 17.8121 87.4991 21.3717 89.6481C26.0583 92.4784 26.1053 93.3174 21.5131 92.1911L17.917 91.3091L22.4505 94.7845C24.9439 96.696 31.2852 99.6699 36.5417 101.394C46.8556 104.777 56.1075 105.851 73.1915 105.65C79.1795 105.579 87.3514 105.872 91.3517 106.301L98.6254 107.081L106.742 118.143C115.397 129.94 116.915 132.344 114.165 129.898C111.762 127.762 96.7706 122.995 87.4956 121.419C77.3742 119.698 59.4941 115.536 45.5852 111.664C33.8173 108.387 33.2907 109.621 43.9138 115.578C50.3958 119.212 49.1055 119.689 38.0836 117.732C34.0599 117.019 30.778 116.83 30.7896 117.315C30.844 119.425 58.8806 129.489 67.4055 130.459C78.149 131.681 81.0957 132.521 88.7153 136.535C91.9494 138.238 100.668 141.655 108.09 144.129C126.657 150.317 129.11 151.596 131.754 156.475C134.596 161.718 134.66 163.936 131.894 161.276C128.295 157.815 112.361 151.392 102.084 149.259C96.7988 148.162 84.4179 146.75 74.5722 146.12C46.8839 144.351 37.9672 143.564 37.1952 142.822C36.8043 142.446 36.1344 142.512 35.7063 142.969C34.3846 144.378 37.1499 146.136 46.272 149.684C58.9567 154.618 70.1459 156.929 94.8147 159.715C118.942 162.439 135.398 166.783 138.134 171.15C139.031 172.582 141.14 177.227 142.821 181.473L145.878 189.193L138.445 185.013C125.657 177.819 105.861 173.705 84.6845 173.839C81.6661 173.858 73.299 173.245 66.0889 172.477C58.8795 171.708 52.6874 171.394 52.3293 171.775C51.2684 172.907 75.2793 183.306 82.7646 184.959C86.5547 185.795 96.2341 186.832 104.276 187.263C121.348 188.178 130.484 189.631 139.385 192.852C147.275 195.706 148.93 197.232 150.443 203.049L151.629 207.607L146.436 204.672C132.368 196.722 100.903 191.016 68.2811 190.497C59.2527 190.353 55.3211 191.965 62.945 192.686C65.0703 192.886 72.8569 195.354 80.2487 198.17C87.6412 200.986 97.7925 204.419 102.807 205.8L111.926 208.31L89.5153 209.51C77.1887 210.171 64.6855 210.331 61.7292 209.869C56.4853 209.047 54.1357 209.619 55.8772 211.294C57.6245 212.974 76.8058 219.92 84.3171 221.591C88.5721 222.539 101.864 224.819 113.855 226.658C137.557 230.293 147.657 232.859 155.054 237.119C159.357 239.598 159.941 240.306 160.887 244.193L161.938 248.512L159.45 246.146C155.574 242.46 142.432 235.764 133.156 232.749C128.526 231.244 120.615 229.81 115.578 229.563C104.218 229.006 72.7239 232.228 74.3392 233.781C74.9923 234.41 76.1039 234.768 76.8107 234.58C77.5175 234.391 78.5271 234.667 79.0545 235.194C79.582 235.72 78.4065 235.994 76.4421 235.804C71.7374 235.346 73.0216 236.453 82.1278 240.699C90.9145 244.798 98.1905 247.116 106.501 248.464C113.042 249.526 113.084 249.5 99.2864 252.645C93.9924 253.851 88.8752 255.217 87.9149 255.681C84.574 257.293 92.5586 258.555 110.405 259.237C119.832 259.597 130.739 260.785 134.642 261.879C144.553 264.655 144.774 265.574 134.979 263.286C126.644 261.338 92.0558 260.728 92.0656 262.529C92.074 264.02 104.824 267.393 119.778 269.858C137.385 272.76 142.345 274.038 150.789 277.847C159.928 281.971 166.515 288.077 166.628 292.534C166.673 294.314 166.621 295.862 166.512 295.975C166.403 296.086 163.271 293.257 159.552 289.686C152.063 282.495 149.167 281.046 136.079 277.936C121.244 274.412 108.537 275.709 120.797 279.496C123.955 280.471 127.886 282.055 129.533 283.016C132.427 284.703 132.431 284.769 129.635 284.985C125.565 285.297 124.96 286.408 128.498 287.073C132.702 287.862 140.879 291.995 149.909 297.896C154.162 300.674 159.292 303.799 161.31 304.84C163.329 305.881 165.372 307.111 165.853 307.573C166.332 308.034 166.851 313.842 167.005 320.479C167.272 331.953 168.192 335.735 170.198 333.597C171.25 332.475 173.001 319.074 173.042 311.826C173.071 306.542 173.122 306.488 181.75 302.34C185.248 300.659 190.326 296.394 199.275 287.624C206.205 280.832 212.778 274.901 213.881 274.442C215.177 273.903 215.538 273.273 214.902 272.662C214.361 272.142 213.025 272.277 211.933 272.964C210.841 273.65 209.571 273.849 209.11 273.405C208.278 272.605 215.454 265.762 220.648 262.403C223.049 260.85 223.004 260.825 218.613 261.235C212.174 261.837 206.691 264.011 198.956 269.03C191.327 273.979 178.28 287.257 175.361 293.04L173.484 296.759L173.597 291.512C173.701 286.762 174.098 285.951 177.804 282.931C180.056 281.096 186.619 275.257 192.391 269.956C203.984 259.306 213.623 251.583 217.944 249.48C221.623 247.69 224.234 244.875 222.546 244.517C220.429 244.069 209.341 248.33 202.623 252.173L196.448 255.706L202.02 250.545C205.451 247.367 211.02 243.738 216.516 241.096C225.998 236.538 227.668 234.678 221.784 235.226C203.342 236.943 185.853 248.1 177.466 263.497C175.449 267.2 173.742 271.079 173.671 272.117C173.599 273.155 173.17 274.014 172.714 274.026C170.89 274.075 172.617 264.415 175.411 258.937C179.266 251.38 190.152 240.696 205.762 229.148C215.314 222.084 218.892 218.767 226.049 210.354C230.829 204.734 234.878 199.464 235.048 198.641C235.218 197.816 231.797 198.957 227.411 201.189C223.041 203.414 216.247 206.099 212.313 207.156L205.16 209.078L212.339 201.011C217.278 195.461 221.594 189.197 226.17 180.938C237.553 160.393 237.341 160.109 221.911 175.228C212.064 184.876 206.48 189.582 200.917 192.922C177.669 206.877 170.465 212.944 166.571 221.847C164.584 226.389 164.003 226.44 163.299 222.134C162.793 219.038 161.306 220.767 188.134 193.258C201.111 179.953 205.129 174.174 210.526 161.045C213.071 154.852 214.221 147.735 212.671 147.777C212.214 147.789 210.681 149.789 209.267 152.223C207.85 154.657 197.054 167.268 185.273 180.247C173.493 193.227 163.087 205.417 162.148 207.335C161.21 209.253 160.338 210.724 160.211 210.602C159.863 210.267 156.518 203.621 156.598 203.422C156.636 203.326 161.448 197.546 167.291 190.577C173.134 183.608 178.916 176.029 180.141 173.734C181.366 171.439 186.307 163.406 191.123 155.882C205.712 133.086 209.082 127.05 206.275 128.748C203.896 130.188 203.876 130.177 205.505 128.28C206.423 127.209 206.805 125.979 206.355 125.546C205.892 125.101 203.33 127.109 200.476 130.152C197.693 133.119 195.098 135.24 194.709 134.866C194.32 134.492 195.329 131.378 196.951 127.947C199.284 123.013 199.432 122.082 197.66 123.499C194.377 126.123 192.008 125.885 194.542 123.184C195.698 121.951 196.305 120.617 195.892 120.22C195.073 119.432 186.71 124.886 183.515 128.293C180.66 131.337 174.859 142.243 173.349 147.404C172.639 149.828 169.181 156.845 165.661 162.999C162.141 169.152 157.779 178.304 155.968 183.336C154.07 188.604 152.564 191.548 152.415 190.278C152.051 187.177 154.108 180.636 159.482 167.814C165.117 154.372 167.621 143.502 169.178 125.728C169.828 118.311 171.029 108.403 171.846 103.712C172.663 99.0185 172.832 95.4498 172.221 95.7783C170.77 96.5619 166.26 106.245 163.851 113.754C162.804 117.021 161.654 119.701 161.297 119.711C160 119.745 161.983 99.2417 163.846 93.3515L165.76 87.2997L161.253 92.8277C155.446 99.9488 152.15 110.115 151.151 123.985C150.734 129.783 149.925 140.725 149.355 148.301C148.784 155.876 148.414 166.96 148.531 172.933C148.648 178.906 148.578 183.632 148.375 183.437C148.171 183.241 146.649 179.735 144.991 175.646C141.428 166.856 140.982 158.197 143.262 142.14C146.794 117.262 147.304 106.388 146.085 81.8872C144.762 55.2916 144.163 53.8024 139.285 64.9395C136.268 71.8273 136.122 70.17 138.877 60.3109L141.408 51.2575L137.936 53.4426C136.027 54.6454 132.773 57.7558 130.706 60.3566C128.638 62.9567 126.988 64.5663 127.038 63.932C127.782 54.4672 128.531 48.9478 129.553 45.3819C131.248 39.4734 128.768 41.1752 125.486 48.1727C122.29 54.9883 119.521 63.8796 118.014 72.1671L116.915 78.2129L117.087 73.0519C117.319 66.1472 120.304 55.5867 124.774 45.8487C126.791 41.4553 127.785 38.1783 126.984 38.5652C124.667 39.6831 115.369 52.4043 113.096 57.5686L111.023 62.2768L110.157 53.3035C109.682 48.369 109.516 42.2495 109.788 39.7062C110.19 35.9509 108.685 30.2639 107.596 31.4249C106.334 32.7702 99.7259 49.7081 97.7714 56.6061C95.0612 66.1693 94.8707 83.7697 97.3602 94.5526C98.4428 99.2396 98.3989 100.657 97.2065 99.5108C95.0265 97.4146 94.3266 92.7767 93.5768 75.4528C93.2362 67.5901 91.4384 54.5508 89.5814 46.4769C87.7243 38.403 86.1043 30.5916 85.9812 29.1175C85.8574 27.6442 85.3258 26.4496 84.7992 26.4625C83.441 26.4981 82.2121 62.6908 83.28 71.2039C83.7693 75.1026 84.737 80.0532 85.4321 82.2037L86.6947 86.1137L84.3297 83.9058C81.3414 81.116 80.3111 76.1557 79.6258 61.2456C79.3253 54.7111 78.1657 45.5463 77.0485 40.8797C74.6592 30.8923 70.5942 19.8414 69.0405 19.105C66.9526 18.1154 69.4216 57.5893 71.9289 65.2973L74.3366 72.701L70.617 69.1654C67.1801 65.9001 66.6629 64.2347 63.8272 47.29C61.0955 30.974 54.6079 9.44448 52.4395 9.50129C50.8552 9.54361 54.9158 39.6365 58.0598 51.1641L60.0259 58.3705L56.3406 54.4859C53.2887 51.2688 52.1584 48.4457 49.7671 38.0666C46.8841 25.5479 38.4664 0.962843 37.077 1.00005C35.4974 1.04063 39.7088 28.8258 42.4843 36.6732L45.4226 44.9819L36.8954 36.7824C27.8847 28.118 20.2029 23.3279 7.15692 18.2379C0.655731 15.7021 0.481681 15.7115 1.40671 18.5424ZM42.0445 49.6603C43.5562 51.0697 42.8914 51.0223 37.7773 49.3625L33.5958 48.0044L37.2309 48.2831C39.2296 48.4372 41.3968 49.0563 42.0445 49.6603ZM64.4407 71.1373C66.9633 71.8394 69.8618 73.236 70.8827 74.2397C72.3095 75.6416 71.447 75.682 67.1574 74.411C64.0874 73.5014 59.1263 72.2633 56.1312 71.6594C53.137 71.0562 50.4163 70.3026 50.0869 69.9858C49.0231 68.963 59.7078 69.8204 64.4407 71.1373ZM104.569 104.508C105.17 106.644 105.131 108.139 104.48 107.831C103.429 107.333 102.37 101.806 103.164 100.959C103.336 100.777 103.969 102.373 104.569 104.508ZM112.501 113.854C115.994 124.235 115.998 124.413 112.694 119.88C111.064 117.643 109.86 114.085 109.699 111.026C109.552 108.213 109.496 105.841 109.577 105.754C109.658 105.669 110.973 109.313 112.501 113.854ZM115.758 136.483C119.39 137.796 121.455 139.21 122.642 141.192C124.137 143.692 124.09 143.897 122.24 142.938C121.087 142.339 118.625 140.851 116.77 139.63C114.914 138.41 112.579 136.975 111.578 136.441C108.112 134.591 110.597 134.616 115.758 136.483ZM128.329 124.398C129.062 127.502 130.931 135.497 132.482 142.167C134.032 148.836 135.579 155.413 135.92 156.781C136.26 158.149 134.327 155.097 131.624 149.998C128.921 144.898 126.491 139.579 126.222 138.176C125.707 135.479 126.062 119.753 126.651 119.125C126.841 118.922 127.597 121.294 128.329 124.398ZM144.745 213.784C151.122 215.729 153.744 217.08 154.987 219.066C156.92 222.151 156.027 223.941 153.682 221.686C151.596 219.68 137.695 213.53 131.8 212.003L127.167 210.803L131.671 210.987C134.148 211.088 140.031 212.347 144.745 213.784ZM132.869 242.114C149.15 246.801 164.653 255.679 163.798 259.824C163.63 260.638 161.861 259.547 159.166 256.967C151.156 249.299 137.686 243.504 121.62 240.813C113.731 239.492 113.46 239.37 118.878 239.582C122.186 239.711 128.482 240.851 132.869 242.114ZM152.474 211.554C152.879 212.447 152.5 212.457 151.508 211.579C150.61 210.784 150.311 210.123 150.841 210.109C151.372 210.095 152.107 210.745 152.474 211.554ZM156.955 229.592C159.6 232.104 158.491 231.935 154.34 229.193C151.971 227.628 151.564 227.077 152.967 227.334C154.064 227.535 155.858 228.551 156.955 229.592ZM167.74 227.312C167.949 227.513 167.815 228.804 167.441 230.181C167.032 231.69 166.448 232.383 165.974 231.927C165.539 231.509 165.629 230.354 166.172 229.356C166.716 228.359 167.205 227.409 167.259 227.244C167.314 227.08 167.53 227.11 167.74 227.312ZM177.315 229.473C179.042 228.653 178.951 229.218 176.856 232.311C175.417 234.437 173.301 239.33 172.155 243.184C171.009 247.039 169.945 249.868 169.792 249.469C169.638 249.072 169.009 246.487 168.395 243.725C167.348 239.019 167.524 238.449 171.218 234.602C173.385 232.345 176.128 230.036 177.315 229.473ZM164.899 270.109C165.631 272.076 164.696 271.509 160.534 267.458L155.237 262.303L159.604 264.953C162.517 266.723 164.279 268.437 164.899 270.109ZM174.791 248.955C173.552 252.032 172.557 255.301 172.58 256.221C172.604 257.14 172.273 258.266 171.845 258.722C171.416 259.179 171.043 258.658 171.016 257.562C170.955 255.165 174.264 246.364 175.885 244.615C176.524 243.926 176.031 245.878 174.791 248.955ZM157.267 273.018C157.615 273.79 156.977 273.535 155.85 272.451C154.724 271.368 154.44 270.737 155.218 271.048C155.998 271.359 156.92 272.246 157.267 273.018ZM165.284 280.206C165.824 282.435 165.799 282.458 164.8 280.637C164.222 279.581 163.173 278.081 162.47 277.305C161.32 276.033 161.368 275.991 162.954 276.875C163.921 277.413 164.97 278.913 165.284 280.206ZM177.356 275.229C175.374 278.532 173.48 281.253 173.147 281.275C171.817 281.365 174.885 275.635 177.83 272.527C180.703 269.496 180.663 269.718 177.356 275.229Z" fill="#E6E6E6" fill-opacity="0.2"/>
</g>
<defs>
<filter id="filter0_f_2017_140" x="0" y="0" width="236.054" height="335.166" filterUnits="userSpaceOnUse" color-interpolation-filters="sRGB">
<feFlood flood-opacity="0" result="BackgroundImageFix"/>
<feBlend mode="normal" in="SourceGraphic" in2="BackgroundImageFix" result="shape"/>
<feGaussianBlur stdDeviation="0.5" result="effect1_foregroundBlur_2017_140"/>
</filter>
</defs>
</svg>
