<svg width="237" height="336" viewBox="0 0 237 336" fill="none" xmlns="http://www.w3.org/2000/svg">
<g filter="url(#filter0_f_2054_11)">
<path fill-rule="evenodd" clip-rule="evenodd" d="M1.40659 18.5424C2.70167 22.5009 12.1669 32.5967 17.6555 35.8731C20.1137 37.3403 22.13 38.7518 22.1365 39.0091C22.143 39.2663 17.6619 38.2909 12.178 36.8407C6.69427 35.3921 1.89427 34.5173 1.51298 34.8972C1.13091 35.278 2.4102 36.6975 4.3546 38.0511C7.61586 40.3204 7.65878 40.4359 4.91042 39.5357C2.03956 38.5966 2.05009 38.6967 5.18536 42.2371C6.97647 44.2592 10.7742 47.1266 13.6253 48.6102C16.4764 50.0921 18.6985 51.4238 18.5631 51.5682C18.4268 51.7135 15.0387 51.0251 11.0345 50.0396C6.33128 48.8822 4.14938 48.8155 4.87285 49.8505C6.10572 51.6137 21.0698 57.9324 28.0996 59.6571L32.5517 60.7498L28.0795 60.5327C25.6204 60.4125 19.2418 58.9874 13.9055 57.3649L4.20221 54.4159L8.2676 57.5595C10.5038 59.2883 15.2409 62.0315 18.7944 63.657L25.2567 66.6115L19.3445 66.394C14.5103 66.2171 13.7299 66.4659 15.0613 67.765C15.9566 68.6385 20.1864 70.6712 24.4623 72.2827C28.7382 73.8941 32.1354 75.3188 32.0132 75.4491C31.8918 75.5786 28.4367 75.1494 24.3362 74.4943C13.3257 72.7363 12.843 74.3494 23.0651 78.7443C31.6714 82.4441 40.6118 83.8782 56.3109 84.0773C74.9771 84.3136 80.9905 85.4634 85.0178 89.5632C88.5576 93.1659 92.9056 99.6259 90.3171 97.4352C89.4265 96.6814 73.502 93.9375 54.9285 91.3391C36.3558 88.7399 20.4692 86.3229 19.6263 85.9685C16.4545 84.6374 17.812 87.4991 21.3716 89.6481C26.0582 92.4784 26.1051 93.3174 21.513 92.1911L17.9168 91.3091L22.4504 94.7845C24.9438 96.696 31.2851 99.6699 36.5416 101.394C46.8555 104.777 56.1073 105.851 73.1914 105.65C79.1794 105.579 87.3512 105.872 91.3516 106.301L98.6252 107.081L106.742 118.143C115.397 129.94 116.915 132.344 114.165 129.898C111.762 127.762 96.7704 122.995 87.4954 121.419C77.3741 119.698 59.494 115.536 45.5851 111.664C33.8172 108.387 33.2905 109.621 43.9137 115.578C50.3957 119.212 49.1054 119.689 38.0834 117.732C34.0598 117.019 30.7779 116.83 30.7894 117.315C30.8439 119.425 58.8805 129.489 67.4054 130.459C78.1488 131.681 81.0955 132.521 88.7152 136.535C91.9493 138.238 100.668 141.655 108.09 144.129C126.657 150.317 129.11 151.596 131.754 156.475C134.596 161.718 134.66 163.936 131.894 161.276C128.295 157.815 112.361 151.392 102.084 149.259C96.7987 148.162 84.4178 146.75 74.572 146.12C46.8838 144.351 37.9671 143.564 37.1951 142.822C36.8042 142.446 36.1343 142.512 35.7061 142.969C34.3844 144.378 37.1498 146.136 46.2719 149.684C58.9565 154.618 70.1458 156.929 94.8146 159.715C118.942 162.439 135.398 166.783 138.134 171.15C139.031 172.582 141.14 177.227 142.821 181.473L145.878 189.193L138.445 185.013C125.656 177.819 105.861 173.705 84.6844 173.839C81.666 173.858 73.2989 173.245 66.0887 172.477C58.8793 171.708 52.6873 171.394 52.3292 171.775C51.2683 172.907 75.2792 183.306 82.7645 184.959C86.5546 185.795 96.234 186.832 104.276 187.263C121.347 188.178 130.483 189.631 139.385 192.852C147.275 195.706 148.93 197.232 150.443 203.049L151.629 207.607L146.436 204.672C132.367 196.722 100.903 191.016 68.2809 190.497C59.2526 190.353 55.3209 191.965 62.9448 192.686C65.0702 192.886 72.8568 195.354 80.2486 198.17C87.6411 200.986 97.7924 204.419 102.807 205.8L111.926 208.31L89.5152 209.51C77.1886 210.171 64.6854 210.331 61.7291 209.869C56.4851 209.047 54.1356 209.619 55.8771 211.294C57.6243 212.974 76.8056 219.92 84.317 221.591C88.572 222.539 101.864 224.819 113.855 226.658C137.557 230.293 147.657 232.859 155.053 237.119C159.357 239.598 159.941 240.306 160.887 244.193L161.938 248.512L159.45 246.146C155.574 242.46 142.432 235.764 133.155 232.749C128.526 231.244 120.615 229.81 115.578 229.563C104.218 229.006 72.7238 232.228 74.339 233.781C74.9922 234.41 76.1038 234.768 76.8106 234.58C77.5173 234.391 78.5269 234.667 79.0544 235.194C79.5818 235.72 78.4064 235.994 76.442 235.804C71.7373 235.346 73.0214 236.453 82.1277 240.699C90.9144 244.798 98.1903 247.116 106.501 248.464C113.041 249.526 113.084 249.5 99.2863 252.645C93.9923 253.851 88.8751 255.217 87.9147 255.681C84.5739 257.293 92.5585 258.555 110.405 259.237C119.832 259.597 130.739 260.785 134.642 261.879C144.553 264.655 144.774 265.574 134.979 263.286C126.644 261.338 92.0557 260.728 92.0655 262.529C92.0738 264.02 104.824 267.393 119.778 269.858C137.385 272.76 142.345 274.038 150.789 277.847C159.928 281.971 166.515 288.077 166.628 292.534C166.673 294.314 166.621 295.862 166.512 295.975C166.403 296.086 163.271 293.257 159.552 289.686C152.063 282.495 149.167 281.046 136.079 277.936C121.244 274.412 108.537 275.709 120.797 279.496C123.955 280.471 127.886 282.055 129.533 283.016C132.427 284.703 132.43 284.769 129.635 284.985C125.565 285.297 124.96 286.408 128.498 287.073C132.702 287.862 140.879 291.995 149.909 297.896C154.162 300.674 159.292 303.799 161.31 304.84C163.329 305.881 165.372 307.111 165.853 307.573C166.332 308.034 166.851 313.842 167.005 320.479C167.272 331.953 168.192 335.735 170.197 333.597C171.25 332.475 173.001 319.074 173.042 311.826C173.071 306.542 173.122 306.488 181.75 302.34C185.248 300.659 190.326 296.394 199.275 287.624C206.205 280.832 212.778 274.901 213.881 274.442C215.177 273.903 215.538 273.273 214.902 272.662C214.361 272.142 213.025 272.277 211.933 272.964C210.841 273.65 209.571 273.849 209.109 273.405C208.278 272.605 215.453 265.762 220.648 262.403C223.048 260.85 223.004 260.825 218.613 261.235C212.174 261.837 206.69 264.011 198.956 269.03C191.327 273.979 178.28 287.257 175.361 293.04L173.484 296.759L173.597 291.512C173.701 286.762 174.098 285.951 177.804 282.931C180.056 281.096 186.619 275.257 192.391 269.956C203.984 259.306 213.623 251.583 217.944 249.48C221.623 247.69 224.234 244.875 222.546 244.517C220.429 244.069 209.341 248.33 202.623 252.173L196.448 255.706L202.02 250.545C205.451 247.367 211.02 243.738 216.516 241.096C225.998 236.538 227.668 234.678 221.784 235.226C203.342 236.943 185.853 248.1 177.466 263.497C175.449 267.2 173.742 271.079 173.67 272.117C173.599 273.155 173.169 274.014 172.714 274.026C170.89 274.075 172.617 264.415 175.411 258.937C179.266 251.38 190.152 240.696 205.762 229.148C215.314 222.084 218.892 218.767 226.049 210.354C230.829 204.734 234.878 199.464 235.048 198.641C235.218 197.816 231.797 198.957 227.411 201.189C223.041 203.414 216.247 206.099 212.313 207.156L205.16 209.078L212.339 201.011C217.278 195.461 221.594 189.197 226.17 180.938C237.552 160.393 237.341 160.109 221.911 175.228C212.064 184.876 206.48 189.582 200.917 192.922C177.669 206.877 170.465 212.944 166.57 221.847C164.584 226.389 164.003 226.44 163.299 222.134C162.793 219.038 161.306 220.767 188.134 193.258C201.111 179.953 205.128 174.174 210.525 161.045C213.071 154.852 214.221 147.735 212.67 147.777C212.213 147.789 210.681 149.789 209.267 152.223C207.85 154.657 197.054 167.268 185.273 180.247C173.493 193.227 163.087 205.417 162.148 207.335C161.209 209.253 160.338 210.724 160.211 210.602C159.863 210.267 156.518 203.621 156.598 203.422C156.636 203.326 161.448 197.546 167.291 190.577C173.134 183.608 178.916 176.029 180.141 173.734C181.366 171.439 186.307 163.406 191.122 155.882C205.712 133.086 209.082 127.05 206.274 128.748C203.896 130.188 203.876 130.177 205.505 128.28C206.423 127.209 206.805 125.979 206.355 125.546C205.892 125.101 203.33 127.109 200.475 130.152C197.693 133.119 195.098 135.24 194.709 134.866C194.319 134.492 195.329 131.378 196.951 127.947C199.283 123.013 199.432 122.082 197.66 123.499C194.377 126.123 192.008 125.885 194.542 123.184C195.698 121.951 196.305 120.617 195.892 120.22C195.073 119.432 186.71 124.886 183.515 128.293C180.66 131.337 174.859 142.243 173.349 147.404C172.639 149.828 169.181 156.845 165.661 162.999C162.141 169.152 157.779 178.304 155.968 183.336C154.07 188.604 152.564 191.548 152.415 190.278C152.051 187.177 154.108 180.636 159.482 167.814C165.116 154.372 167.621 143.502 169.178 125.728C169.828 118.311 171.029 108.403 171.846 103.712C172.663 99.0185 172.832 95.4498 172.221 95.7783C170.769 96.5619 166.26 106.245 163.851 113.754C162.804 117.021 161.654 119.701 161.297 119.711C160 119.745 161.982 99.2417 163.846 93.3515L165.759 87.2997L161.252 92.8277C155.446 99.9488 152.15 110.115 151.151 123.985C150.734 129.783 149.925 140.725 149.354 148.301C148.784 155.876 148.414 166.96 148.53 172.933C148.648 178.906 148.578 183.632 148.374 183.437C148.17 183.241 146.649 179.735 144.991 175.646C141.428 166.856 140.982 158.197 143.262 142.14C146.794 117.262 147.304 106.388 146.085 81.8872C144.762 55.2916 144.163 53.8024 139.285 64.9395C136.268 71.8272 136.122 70.17 138.877 60.3109L141.408 51.2575L137.936 53.4426C136.027 54.6454 132.773 57.7558 130.706 60.3566C128.638 62.9567 126.988 64.5663 127.038 63.932C127.782 54.4672 128.531 48.9478 129.553 45.3819C131.248 39.4734 128.768 41.1752 125.486 48.1727C122.29 54.9883 119.521 63.8796 118.014 72.1671L116.914 78.2129L117.087 73.0519C117.319 66.1472 120.304 55.5867 124.774 45.8487C126.791 41.4553 127.785 38.1783 126.984 38.5652C124.667 39.6831 115.369 52.4043 113.096 57.5686L111.022 62.2768L110.157 53.3035C109.682 48.369 109.516 42.2495 109.788 39.7062C110.19 35.9509 108.685 30.2639 107.596 31.4249C106.334 32.7702 99.7258 49.7081 97.7713 56.6061C95.0611 66.1694 94.8706 83.7697 97.3601 94.5526C98.4427 99.2396 98.3988 100.657 97.2064 99.5108C95.0264 97.4146 94.3265 92.7767 93.5766 75.4528C93.236 67.5901 91.4383 54.5508 89.5812 46.4769C87.7242 38.403 86.1041 30.5916 85.9811 29.1175C85.8573 27.6442 85.3257 26.4496 84.7991 26.4625C83.4409 26.4981 82.212 62.6908 83.2799 71.2039C83.7691 75.1026 84.7369 80.0532 85.432 82.2037L86.6946 86.1137L84.3296 83.9058C81.3413 81.116 80.3109 76.1557 79.6257 61.2456C79.3252 54.7111 78.1656 45.5463 77.0484 40.8797C74.6591 30.8923 70.5941 19.8414 69.0404 19.105C66.9525 18.1154 69.4215 57.5893 71.9288 65.2973L74.3364 72.701L70.6169 69.1654C67.18 65.9001 66.6627 64.2347 63.8271 47.29C61.0953 30.974 54.6078 9.44448 52.4394 9.50129C50.8551 9.54361 54.9156 39.6365 58.0597 51.164L60.0258 58.3705L56.3405 54.4859C53.2886 51.2688 52.1583 48.4457 49.767 38.0666C46.8839 25.5479 38.4663 0.962846 37.0769 1.00006C35.4973 1.04063 39.7087 28.8258 42.4841 36.6732L45.4224 44.9819L36.8953 36.7824C27.8846 28.118 20.2028 23.3279 7.15679 18.2379C0.655609 15.7021 0.481559 15.7115 1.40659 18.5424ZM42.0444 49.6603C43.5561 51.0697 42.8913 51.0223 37.7771 49.3625L33.5956 48.0044L37.2308 48.2831C39.2295 48.4372 41.3967 49.0563 42.0444 49.6603ZM64.4405 71.1373C66.9632 71.8394 69.8617 73.236 70.8826 74.2397C72.3093 75.6416 71.4469 75.682 67.1573 74.411C64.0873 73.5014 59.1262 72.2633 56.1311 71.6594C53.1369 71.0562 50.4162 70.3026 50.0868 69.9858C49.023 68.963 59.7077 69.8204 64.4405 71.1373ZM104.569 104.508C105.17 106.644 105.13 108.139 104.48 107.831C103.429 107.333 102.37 101.806 103.164 100.959C103.335 100.777 103.968 102.373 104.569 104.508ZM112.501 113.854C115.994 124.235 115.998 124.413 112.694 119.88C111.064 117.643 109.859 114.085 109.699 111.026C109.552 108.212 109.496 105.84 109.577 105.754C109.657 105.669 110.973 109.313 112.501 113.854ZM115.758 136.483C119.389 137.796 121.455 139.21 122.642 141.192C124.137 143.692 124.09 143.897 122.24 142.938C121.087 142.339 118.625 140.851 116.77 139.63C114.914 138.41 112.578 136.975 111.578 136.441C108.112 134.591 110.597 134.616 115.758 136.483ZM128.329 124.398C129.062 127.502 130.931 135.497 132.482 142.167C134.032 148.836 135.579 155.413 135.92 156.781C136.26 158.149 134.326 155.097 131.624 149.998C128.921 144.898 126.491 139.579 126.222 138.176C125.707 135.479 126.061 119.753 126.651 119.125C126.841 118.922 127.596 121.294 128.329 124.398ZM144.745 213.784C151.122 215.729 153.744 217.08 154.987 219.066C156.92 222.151 156.027 223.941 153.682 221.686C151.596 219.68 137.695 213.53 131.8 212.003L127.167 210.803L131.671 210.987C134.148 211.088 140.031 212.347 144.745 213.784ZM132.869 242.114C149.15 246.801 164.653 255.679 163.798 259.824C163.63 260.638 161.861 259.547 159.165 256.967C151.155 249.299 137.686 243.504 121.62 240.813C113.731 239.492 113.46 239.37 118.878 239.582C122.186 239.711 128.482 240.851 132.869 242.114ZM152.474 211.554C152.878 212.447 152.5 212.457 151.508 211.579C150.61 210.784 150.311 210.123 150.841 210.109C151.372 210.095 152.107 210.745 152.474 211.554ZM156.954 229.592C159.6 232.104 158.491 231.935 154.34 229.193C151.971 227.628 151.563 227.077 152.967 227.334C154.064 227.535 155.857 228.551 156.954 229.592ZM167.74 227.312C167.949 227.513 167.815 228.804 167.441 230.181C167.032 231.69 166.448 232.383 165.974 231.927C165.539 231.509 165.629 230.354 166.172 229.356C166.716 228.359 167.205 227.409 167.259 227.244C167.314 227.08 167.53 227.11 167.74 227.312ZM177.314 229.473C179.042 228.653 178.951 229.218 176.856 232.311C175.417 234.437 173.301 239.33 172.155 243.184C171.009 247.039 169.945 249.868 169.792 249.469C169.638 249.072 169.009 246.487 168.395 243.725C167.348 239.019 167.523 238.449 171.218 234.602C173.384 232.345 176.128 230.036 177.314 229.473ZM164.899 270.109C165.63 272.076 164.696 271.509 160.534 267.458L155.237 262.303L159.604 264.953C162.517 266.723 164.279 268.437 164.899 270.109ZM174.791 248.956C173.552 252.032 172.557 255.301 172.58 256.221C172.604 257.14 172.273 258.266 171.844 258.722C171.416 259.179 171.043 258.658 171.015 257.562C170.954 255.165 174.264 246.364 175.885 244.615C176.523 243.926 176.031 245.878 174.791 248.956ZM157.267 273.018C157.615 273.79 156.977 273.535 155.85 272.451C154.723 271.368 154.44 270.737 155.218 271.048C155.998 271.359 156.92 272.246 157.267 273.018ZM165.284 280.206C165.824 282.435 165.798 282.458 164.8 280.637C164.221 279.581 163.173 278.081 162.47 277.305C161.32 276.033 161.368 275.991 162.953 276.875C163.921 277.413 164.97 278.913 165.284 280.206ZM177.356 275.229C175.374 278.532 173.48 281.253 173.147 281.275C171.817 281.365 174.885 275.635 177.829 272.527C180.702 269.496 180.663 269.718 177.356 275.229Z" fill="#E6E6E6" fill-opacity="0.2"/>
</g>
<defs>
<filter id="filter0_f_2054_11" x="0" y="0" width="236.054" height="335.166" filterUnits="userSpaceOnUse" color-interpolation-filters="sRGB">
<feFlood flood-opacity="0" result="BackgroundImageFix"/>
<feBlend mode="normal" in="SourceGraphic" in2="BackgroundImageFix" result="shape"/>
<feGaussianBlur stdDeviation="0.5" result="effect1_foregroundBlur_2054_11"/>
</filter>
</defs>
</svg>
